<?xml version="1.0" encoding="UTF-8"?>
<svg width="59.267mm" height="43.392mm" version="1.1" viewBox="0 0 59.267 43.392" xml:space="preserve" xmlns="http://www.w3.org/2000/svg"><defs><clipPath id="am"><path d="m0 0h168v123h-168z"/></clipPath><clipPath id="ab"><path d="m0 0h168v123h-168z"/></clipPath><clipPath id="q"><path d="m0 0h168v123h-168z"/></clipPath><clipPath id="f"><path d="m0 0h168v123h-168z"/></clipPath><clipPath id="e"><path d="m0 0h168v123h-168z"/></clipPath><clipPath id="d"><path d="m0 0h168v123h-168z"/></clipPath><clipPath id="c"><path d="m0 0h168v123h-168z"/></clipPath><clipPath id="b"><path d="m0 0h168v123h-168z"/></clipPath><clipPath id="a"><path d="m0 0h168v123h-168z"/></clipPath><clipPath id="al"><path d="m0 0h168v123h-168z"/></clipPath><clipPath id="ak"><path d="m0 0h168v123h-168z"/></clipPath><clipPath id="aj"><path d="m0 0h168v123h-168z"/></clipPath><clipPath id="ai"><path d="m0 0h168v123h-168z"/></clipPath><clipPath id="ah"><path d="m0 0h168v123h-168z"/></clipPath><clipPath id="ag"><path d="m0 0h168v123h-168z"/></clipPath><clipPath id="af"><path d="m0 0h168v123h-168z"/></clipPath><clipPath id="ae"><path d="m0 0h168v123h-168z"/></clipPath><clipPath id="ad"><path d="m0 0h168v123h-168z"/></clipPath><clipPath id="ac"><path d="m0 0h168v123h-168z"/></clipPath><clipPath id="aa"><path d="m0 0h168v123h-168z"/></clipPath><clipPath id="z"><path d="m0 0h168v123h-168z"/></clipPath><clipPath id="y"><path d="m0 0h168v123h-168z"/></clipPath><clipPath id="x"><path d="m0 0h168v123h-168z"/></clipPath><clipPath id="w"><path d="m0 0h168v123h-168z"/></clipPath><clipPath id="v"><path d="m0 0h168v123h-168z"/></clipPath><clipPath id="u"><path d="m0 0h168v123h-168z"/></clipPath><clipPath id="t"><path d="m0 0h168v123h-168z"/></clipPath><clipPath id="s"><path d="m0 0h168v123h-168z"/></clipPath><clipPath id="r"><path d="m0 0h168v123h-168z"/></clipPath><clipPath id="p"><path d="m0 0h168v123h-168z"/></clipPath><clipPath id="o"><path d="m0 0h168v123h-168z"/></clipPath><clipPath id="n"><path d="m0 0h168v123h-168z"/></clipPath><clipPath id="m"><path d="m0 0h168v123h-168z"/></clipPath><clipPath id="l"><path d="m0 0h168v123h-168z"/></clipPath><clipPath id="k"><path d="m0 0h168v123h-168z"/></clipPath><clipPath id="j"><path d="m0 0h168v123h-168z"/></clipPath><clipPath id="i"><path d="m0 0h168v123h-168z"/></clipPath><clipPath id="h"><path d="m0 0h168v123h-168z"/></clipPath><clipPath id="g"><path d="m0 0h168v123h-168z"/></clipPath></defs><g transform="matrix(.26458 0 0 .26458 4.938e-6 0)"><path transform="matrix(1.3333 0 0 -1.3333 0 164)" d="m41.52 60.78c0-6.3623-5.1577-11.52-11.52-11.52s-11.52 5.1577-11.52 11.52 5.1577 11.52 11.52 11.52 11.52-5.1577 11.52-11.52z" clip-path="url(#am)" fill-opacity=".05"/><path transform="matrix(1.3333 0 0 -1.3333 0 164)" d="m42.24 60.06c0-6.76-5.48-12.24-12.24-12.24s-12.24 5.48-12.24 12.24 5.48 12.24 12.24 12.24 12.24-5.48 12.24-12.24z" clip-path="url(#ab)" fill-opacity=".05"/><path transform="matrix(1.3333 0 0 -1.3333 0 164)" d="m42.96 59.34c0-7.1576-5.8024-12.96-12.96-12.96s-12.96 5.8024-12.96 12.96 5.8024 12.96 12.96 12.96 12.96-5.8024 12.96-12.96z" clip-path="url(#q)" fill-opacity=".05"/><path transform="matrix(1.3333 0 0 -1.3333 0 164)" d="m78.42 92.46v-20.16c0-0.7953 0.6447-1.44 1.44-1.44h8.28c0.7953 0 1.44 0.6447 1.44 1.44v20.16c0 0.7953-0.6447 1.44-1.44 1.44h-8.28c-0.7953 0-1.44-0.6447-1.44-1.44z" clip-path="url(#f)" fill-opacity=".05"/><path transform="matrix(1.3333 0 0 -1.3333 0 164)" d="m77.7 91.02v-18.72c0-1.5906 1.2894-2.88 2.88-2.88h6.84c1.5906 0 2.88 1.2894 2.88 2.88v18.72c0 1.5906-1.2894 2.88-2.88 2.88h-6.84c-1.5906 0-2.88-1.2894-2.88-2.88z" clip-path="url(#e)" fill-opacity=".05"/><path transform="matrix(1.3333 0 0 -1.3333 0 164)" d="m76.98 89.58v-17.28c0-2.3859 1.9341-4.32 4.32-4.32h5.4c2.3859 0 4.32 1.9341 4.32 4.32v17.28c0 2.3859-1.9341 4.32-4.32 4.32h-5.4c-2.3859 0-4.32-1.9341-4.32-4.32z" clip-path="url(#d)" fill-opacity=".05"/><path transform="matrix(1.3333 0 0 -1.3333 0 164)" d="m78.42 49.26v-20.16c0-0.7953 0.6447-1.44 1.44-1.44h8.28c0.7953 0 1.44 0.6447 1.44 1.44v20.16c0 0.7953-0.6447 1.44-1.44 1.44h-8.28c-0.7953 0-1.44-0.6447-1.44-1.44z" clip-path="url(#c)" fill-opacity=".05"/><path transform="matrix(1.3333 0 0 -1.3333 0 164)" d="m77.7 47.82v-18.72c0-1.5906 1.2894-2.88 2.88-2.88h6.84c1.5906 0 2.88 1.2894 2.88 2.88v18.72c0 1.5906-1.2894 2.88-2.88 2.88h-6.84c-1.5906 0-2.88-1.2894-2.88-2.88z" clip-path="url(#b)" fill-opacity=".05"/><path transform="matrix(1.3333 0 0 -1.3333 0 164)" d="m76.98 46.38v-17.28c0-2.3859 1.9341-4.32 4.32-4.32h5.4c2.3859 0 4.32 1.9341 4.32 4.32v17.28c0 2.3859-1.9341 4.32-4.32 4.32h-5.4c-2.3859 0-4.32-1.9341-4.32-4.32z" clip-path="url(#a)" fill-opacity=".05"/><path transform="matrix(1.3333 0 0 -1.3333 0 164)" d="m149.52 82.38c0-6.3623-5.1577-11.52-11.52-11.52s-11.52 5.1577-11.52 11.52 5.1577 11.52 11.52 11.52 11.52-5.1577 11.52-11.52z" clip-path="url(#al)" fill-opacity=".05"/><path transform="matrix(1.3333 0 0 -1.3333 0 164)" d="m150.24 81.66c0-6.76-5.48-12.24-12.24-12.24s-12.24 5.48-12.24 12.24 5.48 12.24 12.24 12.24 12.24-5.48 12.24-12.24z" clip-path="url(#ak)" fill-opacity=".05"/><path transform="matrix(1.3333 0 0 -1.3333 0 164)" d="m150.96 80.94c0-7.1576-5.8024-12.96-12.96-12.96s-12.96 5.8024-12.96 12.96 5.8024 12.96 12.96 12.96 12.96-5.8024 12.96-12.96z" clip-path="url(#aj)" fill-opacity=".05"/><path transform="matrix(1.3333 0 0 -1.3333 0 164)" d="m149.52 39.18c0-6.3623-5.1577-11.52-11.52-11.52s-11.52 5.1577-11.52 11.52 5.1577 11.52 11.52 11.52 11.52-5.1577 11.52-11.52z" clip-path="url(#ai)" fill-opacity=".05"/><path transform="matrix(1.3333 0 0 -1.3333 0 164)" d="m150.24 38.46c0-6.76-5.48-12.24-12.24-12.24s-12.24 5.48-12.24 12.24 5.48 12.24 12.24 12.24 12.24-5.48 12.24-12.24z" clip-path="url(#ah)" fill-opacity=".05"/><path transform="matrix(1.3333 0 0 -1.3333 0 164)" d="m150.96 37.74c0-7.1576-5.8024-12.96-12.96-12.96s-12.96 5.8024-12.96 12.96 5.8024 12.96 12.96 12.96 12.96-5.8024 12.96-12.96z" clip-path="url(#ag)" fill-opacity=".05"/><path transform="matrix(1.3333 0 0 -1.3333 0 164)" d="m40.026 65.51 39.116 15.646" clip-path="url(#af)" fill="none" stroke="#000" stroke-miterlimit="2" stroke-width=".675"/><path transform="matrix(1.3333 0 0 -1.3333 0 164)" d="m71.196 80.665 7.9458 0.4913-6.0927-5.124" clip-path="url(#ae)" fill="none" stroke="#000" stroke-miterlimit="2" stroke-width=".675"/><path transform="matrix(1.3333 0 0 -1.3333 0 164)" d="m40.026 57.49 39.116-15.646" clip-path="url(#ad)" fill="none" stroke="#000" stroke-miterlimit="2" stroke-width=".675"/><path transform="matrix(1.3333 0 0 -1.3333 0 164)" d="m73.049 46.967 6.0927-5.124-7.9458 0.4913" clip-path="url(#ac)" fill="none" stroke="#000" stroke-miterlimit="2" stroke-width=".675"/><path transform="matrix(1.3333 0 0 -1.3333 0 164)" d="m88.858 83.1h38.344" clip-path="url(#aa)" fill="none" stroke="#000" stroke-miterlimit="2" stroke-width=".675"/><path transform="matrix(1.3333 0 0 -1.3333 0 164)" d="m119.64 85.595 7.56-2.4948-7.56-2.4948" clip-path="url(#z)" fill="none" stroke="#000" stroke-miterlimit="2" stroke-width=".675"/><path transform="matrix(1.3333 0 0 -1.3333 0 164)" d="m88.858 39.9h38.344" clip-path="url(#y)" fill="none" stroke="#000" stroke-miterlimit="2" stroke-width=".675"/><path transform="matrix(1.3333 0 0 -1.3333 0 164)" d="m119.64 42.395 7.56-2.4948-7.56-2.4948" clip-path="url(#x)" fill="none" stroke="#000" stroke-miterlimit="2" stroke-width=".675"/><path transform="matrix(1.3333 0 0 -1.3333 0 164)" d="m40.8 61.5c0-5.9647-4.8353-10.8-10.8-10.8s-10.8 4.8353-10.8 10.8 4.8353 10.8 10.8 10.8 10.8-4.8353 10.8-10.8z" clip-path="url(#w)" fill="#fff" stroke="#000" stroke-miterlimit="2" stroke-width=".675"/><path transform="matrix(1.3333 0 0 -1.3333 0 164)" d="m32.16 61.5c0-1.1929-0.9671-2.16-2.16-2.16s-2.16 0.9671-2.16 2.16 0.9671 2.16 2.16 2.16 2.16-0.9671 2.16-2.16z" clip-path="url(#v)"/><path transform="matrix(1.3333 0 0 -1.3333 0 164)" d="m27.261 45.461v-2.0817c0-0.2625 0.1052-0.3322 0.1052-0.3322 0.1217-0.0792 0.585-0.0792 0.585-0.0792h0.2105v-0.2707c-0.3061 0.026-1.2944 0.026-1.2944 0.026-0.98 0-1.2862-0.026-1.2862-0.026v0.2707h0.2105c0.5686 0 0.6561 0.1489 0.6561 0.1489 0.0342 0.0616 0.0342 0.2625 0.0342 0.2625v4.6104c0 0.2625-0.1053 0.3322-0.1053 0.3322-0.1217 0.0793-0.585 0.0793-0.585 0.0793h-0.2105v0.2706h3.0878c1.0155 0 1.6279-0.6301 1.6279-0.6301 0.4374-0.4374 0.4374-0.9965 0.4374-0.9965 0-0.6916-0.6739-1.1727-0.6739-1.1727-0.5782-0.4115-1.3217-0.4115-1.3217-0.4115zm-0.026 0.2283h1.2069c1.33 0 1.3902 1.155 1.3902 1.155v0.2009c0 0.7081-0.3144 1.0143-0.3144 1.0143-0.3499 0.3417-1.0758 0.3417-1.0758 0.3417h-0.7791c-0.3403 0-0.4018-0.1053-0.4018-0.1053v-0.0177c-0.026-0.052-0.026-0.2269-0.026-0.2269z" clip-path="url(#u)"/><path transform="matrix(1.3333 0 0 -1.3333 0 164)" d="m34.045 43.345c0-0.8937-0.2268-1.3836-0.2268-1.3836-0.3607-0.686-1.0649-0.7109-1.0649-0.7109-0.5578 0-0.8946 0.4411-0.8946 0.4411-0.067 0.0794-0.1158 0.178-0.1158 0.178-0.2756 0.508-0.2756 1.4754-0.2756 1.4754 0 0.9003 0.2258 1.3902 0.2258 1.3902 0.3062 0.686 0.9922 0.7281 0.9922 0.7281h0.0737c0.5454 0 0.8879-0.4343 0.8879-0.4343v-0.0058c0.0861-0.111 0.1531-0.2449 0.1531-0.2449 0.245-0.5205 0.245-1.4333 0.245-1.4333zm-1.2917-1.9596c0.3856 0 0.5932 0.3732 0.5932 0.3732 0.0861 0.1655 0.1225 0.3923 0.1225 0.3923 0.0679 0.3923 0.0679 1.2677 0.0679 1.2677 0 0.8506-0.0612 1.1941-0.0612 1.1941-0.1101 0.5818-0.5636 0.6976-0.5636 0.6976-0.0794 0.0191-0.1588 0.0191-0.1588 0.0191-0.4287 0-0.6248-0.4287-0.6248-0.4287-0.068-0.1473-0.1043-0.3559-0.1043-0.3559-0.0488-0.3301-0.0488-1.1262-0.0488-1.1262 0-0.9252 0.067-1.2926 0.067-1.2926 0.11-0.5875 0.5386-0.7157 0.5386-0.7157 0.0862-0.0249 0.1723-0.0249 0.1723-0.0249z" clip-path="url(#t)"/><path transform="matrix(1.3333 0 0 -1.3333 0 164)" d="m79.14 93.9v-21.6h9.72v21.6z" clip-path="url(#s)" fill="#fff" stroke="#000" stroke-miterlimit="2" stroke-width=".675"/><path transform="matrix(1.3333 0 0 -1.3333 0 164)" d="m80.893 96.812c0.0054 0.0219 0.0177 0.0725 0.0177 0.0725 0.0124 0.0519 0.0342 0.0861 0.0342 0.0861 0.0219 0.0342 0.0643 0.0342 0.0643 0.0342 0.3157 0 0.5549 0.0109 0.5549 0.0109 0.2392 0.0109 0.3636 0.0314 0.3636 0.0314 0.2091 0.0438 0.2597 0.2529 0.2597 0.2529l1.2001 4.8046c0.0342 0.1367 0.0342 0.2009 0.0342 0.2009 0 0.0601-0.2638 0.0601-0.2638 0.0601h-0.436c-0.5509 0-0.8625-0.2282-0.8625-0.2282-0.3117-0.2283-0.4019-0.4361-0.4019-0.4361-0.0902-0.2077-0.2146-0.611-0.2146-0.611-0.123-0.4032-0.2173-0.421-0.2173-0.421h-0.1326c-0.0889 0-0.0889 0.1121-0.0889 0.1121l0.6069 1.8111c0.0164 0.0807 0.0848 0.0807 0.0848 0.0807h4.7581c0.0902 0 0.0902-0.1148 0.0902-0.1148l-0.3076-1.8111c0-0.026-0.03-0.052-0.03-0.052-0.0301-0.026-0.0561-0.026-0.0561-0.026h-0.1312c-0.0902 0-0.0902 0.1121-0.0902 0.1121 0.1148 0.6192 0.1148 0.9473 0.1148 0.9473 0 0.3854-0.2228 0.5112-0.2228 0.5112-0.2214 0.1257-0.6438 0.1257-0.6438 0.1257h-0.4278c-0.2297 0-0.2966-0.041-0.2966-0.041-0.0657-0.0396-0.1217-0.2583-0.1217-0.2583l-1.2001-4.8005c-0.0164-0.0683-0.0164-0.0861-0.0164-0.0861 0-0.0943 0.0683-0.1148 0.0683-0.1148 0.1367-0.0342 0.3841-0.0478 0.3841-0.0478 0.2474-0.0123 0.5509-0.0123 0.5509-0.0123 0.0902 0 0.0902-0.1149 0.0902-0.1149-0.0301-0.1161-0.0492-0.1544-0.0492-0.1544-0.0192-0.0383-0.1012-0.0383-0.1012-0.0383h-2.8786c-0.0861 0-0.0861 0.1148-0.0861 0.1148z" clip-path="url(#r)"/><path transform="matrix(1.3333 0 0 -1.3333 0 164)" d="m88.352 97.345c0-0.8937-0.2268-1.3836-0.2268-1.3836-0.3607-0.686-1.0649-0.7109-1.0649-0.7109-0.5578 0-0.8946 0.4411-0.8946 0.4411-0.067 0.0794-0.1158 0.178-0.1158 0.178-0.2756 0.508-0.2756 1.4754-0.2756 1.4754 0 0.9003 0.2258 1.3902 0.2258 1.3902 0.3062 0.686 0.9923 0.7281 0.9923 0.7281h0.0736c0.5454 0 0.888-0.4343 0.888-0.4343v-0.0058c0.0861-0.111 0.1531-0.2449 0.1531-0.2449 0.2449-0.5205 0.2449-1.4333 0.2449-1.4333zm-1.2917-1.9596c0.3856 0 0.5932 0.3732 0.5932 0.3732 0.0861 0.1655 0.1225 0.3923 0.1225 0.3923 0.0679 0.3923 0.0679 1.2677 0.0679 1.2677 0 0.8506-0.0612 1.1941-0.0612 1.1941-0.11 0.5818-0.5636 0.6976-0.5636 0.6976-0.0794 0.0191-0.1588 0.0191-0.1588 0.0191-0.4287 0-0.6248-0.4287-0.6248-0.4287-0.0679-0.1473-0.1043-0.3559-0.1043-0.3559-0.0488-0.3301-0.0488-1.1262-0.0488-1.1262 0-0.9252 0.067-1.2926 0.067-1.2926 0.11-0.5875 0.5387-0.7157 0.5387-0.7157 0.0861-0.0249 0.1722-0.0249 0.1722-0.0249z" clip-path="url(#p)"/><path transform="matrix(1.3333 0 0 -1.3333 0 164)" d="m79.14 50.7v-21.6h9.72v21.6z" clip-path="url(#o)" fill="#fff" stroke="#000" stroke-miterlimit="2" stroke-width=".675"/><path transform="matrix(1.3333 0 0 -1.3333 0 164)" d="m80.893 53.612c0.0054 0.0219 0.0177 0.0725 0.0177 0.0725 0.0124 0.0519 0.0342 0.0861 0.0342 0.0861 0.0219 0.0342 0.0643 0.0342 0.0643 0.0342 0.3157 0 0.5549 0.0109 0.5549 0.0109 0.2392 0.0109 0.3636 0.0314 0.3636 0.0314 0.2091 0.0438 0.2597 0.2529 0.2597 0.2529l1.2001 4.8046c0.0342 0.1367 0.0342 0.2009 0.0342 0.2009 0 0.0601-0.2638 0.0601-0.2638 0.0601h-0.436c-0.5509 0-0.8625-0.2282-0.8625-0.2282-0.3117-0.2283-0.4019-0.4361-0.4019-0.4361-0.0902-0.2077-0.2146-0.611-0.2146-0.611-0.123-0.4032-0.2173-0.421-0.2173-0.421h-0.1326c-0.0889 0-0.0889 0.1121-0.0889 0.1121l0.6069 1.8111c0.0164 0.0807 0.0848 0.0807 0.0848 0.0807h4.7581c0.0902 0 0.0902-0.1148 0.0902-0.1148l-0.3076-1.8111c0-0.026-0.03-0.052-0.03-0.052-0.0301-0.026-0.0561-0.026-0.0561-0.026h-0.1312c-0.0902 0-0.0902 0.1121-0.0902 0.1121 0.1148 0.6192 0.1148 0.9473 0.1148 0.9473 0 0.3854-0.2228 0.5112-0.2228 0.5112-0.2214 0.1257-0.6438 0.1257-0.6438 0.1257h-0.4278c-0.2297 0-0.2966-0.041-0.2966-0.041-0.0657-0.0396-0.1217-0.2583-0.1217-0.2583l-1.2001-4.8005c-0.0164-0.0683-0.0164-0.0861-0.0164-0.0861 0-0.0943 0.0683-0.1148 0.0683-0.1148 0.1367-0.0342 0.3841-0.0478 0.3841-0.0478 0.2474-0.0123 0.5509-0.0123 0.5509-0.0123 0.0902 0 0.0902-0.1149 0.0902-0.1149-0.0301-0.1161-0.0492-0.1544-0.0492-0.1544-0.0192-0.0383-0.1012-0.0383-0.1012-0.0383h-2.8786c-0.0861 0-0.0861 0.1148-0.0861 0.1148z" clip-path="url(#n)"/><path transform="matrix(1.3333 0 0 -1.3333 0 164)" d="m87.335 56.104v-3.4349c0-0.1837 0.0727-0.2335 0.0727-0.2335 0.1043-0.0612 0.4966-0.0612 0.4966-0.0612h0.1961v-0.1895c-0.2143 0.0182-0.9922 0.0182-0.9922 0.0182-0.7779 0-0.9922-0.0182-0.9922-0.0182v0.1895h0.1961c0.4717 0 0.5387 0.111 0.5387 0.111l0.0058 0.0057c0.0248 0.0488 0.0248 0.178 0.0248 0.178v3.1718c-0.3186-0.1598-0.8018-0.1598-0.8018-0.1598v0.1904c0.7349 0 1.1138 0.3913 1.1138 0.3913 0.1167 0 0.1349-0.0421 0.1349-0.0421v-0.0067c0.0067-0.0181 0.0067-0.11 0.0067-0.11z" clip-path="url(#m)"/><path transform="matrix(1.3333 0 0 -1.3333 0 164)" d="m148.8 83.1c0-5.9647-4.8353-10.8-10.8-10.8s-10.8 4.8353-10.8 10.8 4.8353 10.8 10.8 10.8 10.8-4.8353 10.8-10.8z" clip-path="url(#l)" fill="#fff" stroke="#000" stroke-miterlimit="2" stroke-width=".675"/><path transform="matrix(1.3333 0 0 -1.3333 0 164)" d="m135.26 67.061v-2.0817c0-0.2625 0.1052-0.3322 0.1052-0.3322 0.1217-0.0792 0.585-0.0792 0.585-0.0792h0.2105v-0.2707c-0.3061 0.026-1.2944 0.026-1.2944 0.026-0.98 0-1.2862-0.026-1.2862-0.026v0.2707h0.2105c0.5686 0 0.6561 0.1489 0.6561 0.1489 0.0341 0.0616 0.0341 0.2625 0.0341 0.2625v4.6105c0 0.2624-0.1052 0.3321-0.1052 0.3321-0.1216 0.0793-0.585 0.0793-0.585 0.0793h-0.2105v0.2706h3.0877c1.0156 0 1.628-0.6301 1.628-0.6301 0.4374-0.4374 0.4374-0.9965 0.4374-0.9965 0-0.6916-0.6739-1.1727-0.6739-1.1727-0.5782-0.4115-1.3217-0.4115-1.3217-0.4115zm-0.026 0.2283h1.2069c1.33 0 1.3902 1.155 1.3902 1.155v0.2009c0 0.7081-0.3144 1.0143-0.3144 1.0143-0.3499 0.3417-1.0758 0.3417-1.0758 0.3417h-0.7791c-0.3403 0-0.4018-0.1053-0.4018-0.1053v-0.0177c-0.026-0.052-0.026-0.2269-0.026-0.2269z" clip-path="url(#k)"/><path transform="matrix(1.3333 0 0 -1.3333 0 164)" d="m141.03 66.904v-3.4349c0-0.1838 0.0727-0.2335 0.0727-0.2335 0.1043-0.0612 0.4966-0.0612 0.4966-0.0612h0.1962v-0.1895c-0.2143 0.0182-0.9922 0.0182-0.9922 0.0182-0.7779 0-0.9922-0.0182-0.9922-0.0182v0.1895h0.1961c0.4717 0 0.5387 0.1109 0.5387 0.1109l6e-3 0.0058c0.0249 0.0488 0.0249 0.178 0.0249 0.178v3.1718c-0.3186-0.1598-0.8018-0.1598-0.8018-0.1598v0.1904c0.7348 0 1.1137 0.3914 1.1137 0.3914 0.1167 0 0.1349-0.0422 0.1349-0.0422v-0.0066c7e-3 -0.0182 7e-3 -0.1101 7e-3 -0.1101z" clip-path="url(#j)"/><path transform="matrix(1.3333 0 0 -1.3333 0 164)" d="m148.8 39.9c0-5.9647-4.8353-10.8-10.8-10.8s-10.8 4.8353-10.8 10.8 4.8353 10.8 10.8 10.8 10.8-4.8353 10.8-10.8z" clip-path="url(#i)" fill="#fff" stroke="#000" stroke-miterlimit="2" stroke-width=".675"/><path transform="matrix(1.3333 0 0 -1.3333 0 164)" d="m135.26 23.861v-2.0817c0-0.2625 0.1052-0.3322 0.1052-0.3322 0.1217-0.0792 0.585-0.0792 0.585-0.0792h0.2105v-0.2707c-0.3061 0.026-1.2944 0.026-1.2944 0.026-0.98 0-1.2862-0.026-1.2862-0.026v0.2707h0.2105c0.5686 0 0.6561 0.1489 0.6561 0.1489 0.0341 0.0616 0.0341 0.2625 0.0341 0.2625v4.6105c0 0.2624-0.1052 0.3321-0.1052 0.3321-0.1216 0.0793-0.585 0.0793-0.585 0.0793h-0.2105v0.2706h3.0877c1.0156 0 1.628-0.6301 1.628-0.6301 0.4374-0.4374 0.4374-0.9965 0.4374-0.9965 0-0.6916-0.6739-1.1727-0.6739-1.1727-0.5782-0.4115-1.3217-0.4115-1.3217-0.4115zm-0.026 0.2283h1.2069c1.33 0 1.3902 1.155 1.3902 1.155v0.2009c0 0.7081-0.3144 1.0143-0.3144 1.0143-0.3499 0.3417-1.0758 0.3417-1.0758 0.3417h-0.7791c-0.3403 0-0.4018-0.1053-0.4018-0.1053v-0.0177c-0.026-0.052-0.026-0.2269-0.026-0.2269z" clip-path="url(#h)"/><path transform="matrix(1.3333 0 0 -1.3333 0 164)" d="m141.98 20.851-0.1722-1.0659h-2.2715c0 0.1531 0.0363 0.1962 0.0363 0.1962l0.0307 0.0306 1.1759 1.3099c0.643 0.7233 0.643 1.3538 0.643 1.3538 0 0.5445-0.3301 0.8267-0.3301 0.8267l-7e-3 0.0058h-6e-3c-0.1961 0.1655-0.4774 0.1655-0.4774 0.1655-0.4411 0-0.7042-0.3799-0.7042-0.3799-0.0737-0.11-0.1225-0.2449-0.1225-0.2449 0.0182 0.0067 0.0794 0.0067 0.0794 0.0067 0.245 0 0.3119-0.221 0.3119-0.221v-0.0058c0.0125-0.043 0.0125-0.0918 0.0125-0.0918 0-0.245-0.2325-0.3129-0.2325-0.3129-0.0488-0.0115-0.0861-0.0115-0.0861-0.0115-0.2268 0-0.2995 0.1895-0.2995 0.1895-0.0249 0.0669-0.0249 0.1531-0.0249 0.1531 0 0.4717 0.3617 0.8085 0.3617 0.8085 0.3243 0.2994 0.7836 0.2994 0.7836 0.2994 0.6736 0 1.0467-0.4525 1.0467-0.4525 0.2144-0.2631 0.245-0.6248 0.245-0.6248 7e-3 -0.0555 7e-3 -0.1101 7e-3 -0.1101 0-0.4468-0.3368-0.8515-0.3368-0.8515-0.178-0.2076-0.5511-0.5511-0.5511-0.5511l-0.3741-0.3301-0.0613-0.0555-0.6487-0.6306h1.1022c0.5387 0 0.5818 0.0488 0.5818 0.0488 0.0612 0.0861 0.1349 0.5454 0.1349 0.5454h0.1531z" clip-path="url(#g)"/></g></svg>
