<?xml version="1.0" encoding="UTF-8"?>
<svg width="110.07mm" height="43.392mm" version="1.1" viewBox="0 0 110.07 43.392" xml:space="preserve" xmlns="http://www.w3.org/2000/svg"><defs><clipPath id="cc"><path d="m0 0h312v123h-312z"/></clipPath><clipPath id="br"><path d="m0 0h312v123h-312z"/></clipPath><clipPath id="bg"><path d="m0 0h312v123h-312z"/></clipPath><clipPath id="av"><path d="m0 0h312v123h-312z"/></clipPath><clipPath id="ak"><path d="m0 0h312v123h-312z"/></clipPath><clipPath id="z"><path d="m0 0h312v123h-312z"/></clipPath><clipPath id="o"><path d="m0 0h312v123h-312z"/></clipPath><clipPath id="d"><path d="m0 0h312v123h-312z"/></clipPath><clipPath id="a"><path d="m0 0h312v123h-312z"/></clipPath><clipPath id="cb"><path d="m0 0h312v123h-312z"/></clipPath><clipPath id="ca"><path d="m0 0h312v123h-312z"/></clipPath><clipPath id="bz"><path d="m0 0h312v123h-312z"/></clipPath><clipPath id="by"><path d="m0 0h312v123h-312z"/></clipPath><clipPath id="bx"><path d="m0 0h312v123h-312z"/></clipPath><clipPath id="bw"><path d="m0 0h312v123h-312z"/></clipPath><clipPath id="bv"><path d="m0 0h312v123h-312z"/></clipPath><clipPath id="bu"><path d="m0 0h312v123h-312z"/></clipPath><clipPath id="bt"><path d="m0 0h312v123h-312z"/></clipPath><clipPath id="bs"><path d="m0 0h312v123h-312z"/></clipPath><clipPath id="bq"><path d="m0 0h312v123h-312z"/></clipPath><clipPath id="bp"><path d="m0 0h312v123h-312z"/></clipPath><clipPath id="bo"><path d="m0 0h312v123h-312z"/></clipPath><clipPath id="bn"><path d="m0 0h312v123h-312z"/></clipPath><clipPath id="bm"><path d="m0 0h312v123h-312z"/></clipPath><clipPath id="bl"><path d="m0 0h312v123h-312z"/></clipPath><clipPath id="bk"><path d="m0 0h312v123h-312z"/></clipPath><clipPath id="bj"><path d="m0 0h312v123h-312z"/></clipPath><clipPath id="bi"><path d="m0 0h312v123h-312z"/></clipPath><clipPath id="bh"><path d="m0 0h312v123h-312z"/></clipPath><clipPath id="bf"><path d="m0 0h312v123h-312z"/></clipPath><clipPath id="be"><path d="m0 0h312v123h-312z"/></clipPath><clipPath id="bd"><path d="m0 0h312v123h-312z"/></clipPath><clipPath id="bc"><path d="m0 0h312v123h-312z"/></clipPath><clipPath id="bb"><path d="m0 0h312v123h-312z"/></clipPath><clipPath id="ba"><path d="m0 0h312v123h-312z"/></clipPath><clipPath id="az"><path d="m0 0h312v123h-312z"/></clipPath><clipPath id="ay"><path d="m0 0h312v123h-312z"/></clipPath><clipPath id="ax"><path d="m0 0h312v123h-312z"/></clipPath><clipPath id="aw"><path d="m0 0h312v123h-312z"/></clipPath><clipPath id="au"><path d="m0 0h312v123h-312z"/></clipPath><clipPath id="at"><path d="m0 0h312v123h-312z"/></clipPath><clipPath id="as"><path d="m0 0h312v123h-312z"/></clipPath><clipPath id="ar"><path d="m0 0h312v123h-312z"/></clipPath><clipPath id="aq"><path d="m0 0h312v123h-312z"/></clipPath><clipPath id="ap"><path d="m0 0h312v123h-312z"/></clipPath><clipPath id="ao"><path d="m0 0h312v123h-312z"/></clipPath><clipPath id="an"><path d="m0 0h312v123h-312z"/></clipPath><clipPath id="am"><path d="m0 0h312v123h-312z"/></clipPath><clipPath id="al"><path d="m0 0h312v123h-312z"/></clipPath><clipPath id="aj"><path d="m0 0h312v123h-312z"/></clipPath><clipPath id="ai"><path d="m0 0h312v123h-312z"/></clipPath><clipPath id="ah"><path d="m0 0h312v123h-312z"/></clipPath><clipPath id="ag"><path d="m0 0h312v123h-312z"/></clipPath><clipPath id="af"><path d="m0 0h312v123h-312z"/></clipPath><clipPath id="ae"><path d="m0 0h312v123h-312z"/></clipPath><clipPath id="ad"><path d="m0 0h312v123h-312z"/></clipPath><clipPath id="ac"><path d="m0 0h312v123h-312z"/></clipPath><clipPath id="ab"><path d="m0 0h312v123h-312z"/></clipPath><clipPath id="aa"><path d="m0 0h312v123h-312z"/></clipPath><clipPath id="y"><path d="m0 0h312v123h-312z"/></clipPath><clipPath id="x"><path d="m0 0h312v123h-312z"/></clipPath><clipPath id="w"><path d="m0 0h312v123h-312z"/></clipPath><clipPath id="v"><path d="m0 0h312v123h-312z"/></clipPath><clipPath id="u"><path d="m0 0h312v123h-312z"/></clipPath><clipPath id="t"><path d="m0 0h312v123h-312z"/></clipPath><clipPath id="s"><path d="m0 0h312v123h-312z"/></clipPath><clipPath id="r"><path d="m0 0h312v123h-312z"/></clipPath><clipPath id="q"><path d="m0 0h312v123h-312z"/></clipPath><clipPath id="p"><path d="m0 0h312v123h-312z"/></clipPath><clipPath id="n"><path d="m0 0h312v123h-312z"/></clipPath><clipPath id="m"><path d="m0 0h312v123h-312z"/></clipPath><clipPath id="l"><path d="m0 0h312v123h-312z"/></clipPath><clipPath id="k"><path d="m0 0h312v123h-312z"/></clipPath><clipPath id="j"><path d="m0 0h312v123h-312z"/></clipPath><clipPath id="i"><path d="m0 0h312v123h-312z"/></clipPath><clipPath id="h"><path d="m0 0h312v123h-312z"/></clipPath><clipPath id="g"><path d="m0 0h312v123h-312z"/></clipPath><clipPath id="f"><path d="m0 0h312v123h-312z"/></clipPath><clipPath id="e"><path d="m0 0h312v123h-312z"/></clipPath><clipPath id="c"><path d="m0 0h312v123h-312z"/></clipPath><clipPath id="b"><path d="m0 0h312v123h-312z"/></clipPath></defs><g transform="matrix(.26458 0 0 .26458 1.6232e-6 0)"><path transform="matrix(1.3333 0 0 -1.3333 0 164)" d="m64.02 70.86v-20.16c0-0.7953 0.6447-1.44 1.44-1.44h8.28c0.7953 0 1.44 0.6447 1.44 1.44v20.16c0 0.7953-0.6447 1.44-1.44 1.44h-8.28c-0.7953 0-1.44-0.6447-1.44-1.44z" clip-path="url(#cc)" fill-opacity=".05"/><path transform="matrix(1.3333 0 0 -1.3333 0 164)" d="m63.3 69.42v-18.72c0-1.5906 1.2894-2.88 2.88-2.88h6.84c1.5906 0 2.88 1.2894 2.88 2.88v18.72c0 1.5906-1.2894 2.88-2.88 2.88h-6.84c-1.5906 0-2.88-1.2894-2.88-2.88z" clip-path="url(#br)" fill-opacity=".05"/><path transform="matrix(1.3333 0 0 -1.3333 0 164)" d="m62.58 67.98v-17.28c0-2.3859 1.9341-4.32 4.32-4.32h5.4c2.3859 0 4.32 1.9341 4.32 4.32v17.28c0 2.3859-1.9341 4.32-4.32 4.32h-5.4c-2.3859 0-4.32-1.9341-4.32-4.32z" clip-path="url(#bg)" fill-opacity=".05"/><path transform="matrix(1.3333 0 0 -1.3333 0 164)" d="m48.72 60.78c0-6.3623-5.1577-11.52-11.52-11.52s-11.52 5.1577-11.52 11.52 5.1577 11.52 11.52 11.52 11.52-5.1577 11.52-11.52z" clip-path="url(#av)" fill-opacity=".05"/><path transform="matrix(1.3333 0 0 -1.3333 0 164)" d="m49.44 60.06c0-6.76-5.48-12.24-12.24-12.24s-12.24 5.48-12.24 12.24 5.48 12.24 12.24 12.24 12.24-5.48 12.24-12.24z" clip-path="url(#ak)" fill-opacity=".05"/><path transform="matrix(1.3333 0 0 -1.3333 0 164)" d="m50.16 59.34c0-7.1576-5.8024-12.96-12.96-12.96s-12.96 5.8024-12.96 12.96 5.8024 12.96 12.96 12.96 12.96-5.8024 12.96-12.96z" clip-path="url(#z)" fill-opacity=".05"/><path transform="matrix(1.3333 0 0 -1.3333 0 164)" d="m124.32 82.38c0-6.3623-5.1577-11.52-11.52-11.52s-11.52 5.1577-11.52 11.52 5.1577 11.52 11.52 11.52 11.52-5.1577 11.52-11.52z" clip-path="url(#o)" fill-opacity=".05"/><path transform="matrix(1.3333 0 0 -1.3333 0 164)" d="m125.04 81.66c0-6.76-5.48-12.24-12.24-12.24s-12.24 5.48-12.24 12.24 5.48 12.24 12.24 12.24 12.24-5.48 12.24-12.24z" clip-path="url(#d)" fill-opacity=".05"/><path transform="matrix(1.3333 0 0 -1.3333 0 164)" d="m125.76 80.94c0-7.1576-5.8024-12.96-12.96-12.96s-12.96 5.8024-12.96 12.96 5.8024 12.96 12.96 12.96 12.96-5.8024 12.96-12.96z" clip-path="url(#a)" fill-opacity=".05"/><path transform="matrix(1.3333 0 0 -1.3333 0 164)" d="m124.32 39.18c0-6.3623-5.1577-11.52-11.52-11.52s-11.52 5.1577-11.52 11.52 5.1577 11.52 11.52 11.52 11.52-5.1577 11.52-11.52z" clip-path="url(#cb)" fill-opacity=".05"/><path transform="matrix(1.3333 0 0 -1.3333 0 164)" d="m125.04 38.46c0-6.76-5.48-12.24-12.24-12.24s-12.24 5.48-12.24 12.24 5.48 12.24 12.24 12.24 12.24-5.48 12.24-12.24z" clip-path="url(#ca)" fill-opacity=".05"/><path transform="matrix(1.3333 0 0 -1.3333 0 164)" d="m125.76 37.74c0-7.1576-5.8024-12.96-12.96-12.96s-12.96 5.8024-12.96 12.96 5.8024 12.96 12.96 12.96 12.96-5.8024 12.96-12.96z" clip-path="url(#bz)" fill-opacity=".05"/><path transform="matrix(1.3333 0 0 -1.3333 0 164)" d="m150.42 92.46v-20.16c0-0.7953 0.6447-1.44 1.44-1.44h8.28c0.7953 0 1.44 0.6447 1.44 1.44v20.16c0 0.7953-0.6447 1.44-1.44 1.44h-8.28c-0.7953 0-1.44-0.6447-1.44-1.44z" clip-path="url(#by)" fill-opacity=".05"/><path transform="matrix(1.3333 0 0 -1.3333 0 164)" d="m149.7 91.02v-18.72c0-1.5906 1.2894-2.88 2.88-2.88h6.84c1.5906 0 2.88 1.2894 2.88 2.88v18.72c0 1.5906-1.2894 2.88-2.88 2.88h-6.84c-1.5906 0-2.88-1.2894-2.88-2.88z" clip-path="url(#bx)" fill-opacity=".05"/><path transform="matrix(1.3333 0 0 -1.3333 0 164)" d="m148.98 89.58v-17.28c0-2.3859 1.9341-4.32 4.32-4.32h5.4c2.3859 0 4.32 1.9341 4.32 4.32v17.28c0 2.3859-1.9341 4.32-4.32 4.32h-5.4c-2.3859 0-4.32-1.9341-4.32-4.32z" clip-path="url(#bw)" fill-opacity=".05"/><path transform="matrix(1.3333 0 0 -1.3333 0 164)" d="m150.42 49.26v-20.16c0-0.7953 0.6447-1.44 1.44-1.44h8.28c0.7953 0 1.44 0.6447 1.44 1.44v20.16c0 0.7953-0.6447 1.44-1.44 1.44h-8.28c-0.7953 0-1.44-0.6447-1.44-1.44z" clip-path="url(#bv)" fill-opacity=".05"/><path transform="matrix(1.3333 0 0 -1.3333 0 164)" d="m149.7 47.82v-18.72c0-1.5906 1.2894-2.88 2.88-2.88h6.84c1.5906 0 2.88 1.2894 2.88 2.88v18.72c0 1.5906-1.2894 2.88-2.88 2.88h-6.84c-1.5906 0-2.88-1.2894-2.88-2.88z" clip-path="url(#bu)" fill-opacity=".05"/><path transform="matrix(1.3333 0 0 -1.3333 0 164)" d="m148.98 46.38v-17.28c0-2.3859 1.9341-4.32 4.32-4.32h5.4c2.3859 0 4.32 1.9341 4.32 4.32v17.28c0 2.3859-1.9341 4.32-4.32 4.32h-5.4c-2.3859 0-4.32-1.9341-4.32-4.32z" clip-path="url(#bt)" fill-opacity=".05"/><path transform="matrix(1.3333 0 0 -1.3333 0 164)" d="m210.72 82.38c0-6.3623-5.1577-11.52-11.52-11.52s-11.52 5.1577-11.52 11.52 5.1577 11.52 11.52 11.52 11.52-5.1577 11.52-11.52z" clip-path="url(#bs)" fill-opacity=".05"/><path transform="matrix(1.3333 0 0 -1.3333 0 164)" d="m211.44 81.66c0-6.76-5.48-12.24-12.24-12.24s-12.24 5.48-12.24 12.24 5.48 12.24 12.24 12.24 12.24-5.48 12.24-12.24z" clip-path="url(#bq)" fill-opacity=".05"/><path transform="matrix(1.3333 0 0 -1.3333 0 164)" d="m212.16 80.94c0-7.1576-5.8024-12.96-12.96-12.96s-12.96 5.8024-12.96 12.96 5.8024 12.96 12.96 12.96 12.96-5.8024 12.96-12.96z" clip-path="url(#bp)" fill-opacity=".05"/><path transform="matrix(1.3333 0 0 -1.3333 0 164)" d="m210.72 39.18c0-6.3623-5.1577-11.52-11.52-11.52s-11.52 5.1577-11.52 11.52 5.1577 11.52 11.52 11.52 11.52-5.1577 11.52-11.52z" clip-path="url(#bo)" fill-opacity=".05"/><path transform="matrix(1.3333 0 0 -1.3333 0 164)" d="m211.44 38.46c0-6.76-5.48-12.24-12.24-12.24s-12.24 5.48-12.24 12.24 5.48 12.24 12.24 12.24 12.24-5.48 12.24-12.24z" clip-path="url(#bn)" fill-opacity=".05"/><path transform="matrix(1.3333 0 0 -1.3333 0 164)" d="m212.16 37.74c0-7.1576-5.8024-12.96-12.96-12.96s-12.96 5.8024-12.96 12.96 5.8024 12.96 12.96 12.96 12.96-5.8024 12.96-12.96z" clip-path="url(#bm)" fill-opacity=".05"/><path transform="matrix(1.3333 0 0 -1.3333 0 164)" d="m236.82 70.86v-20.16c0-0.7953 0.6447-1.44 1.44-1.44h8.28c0.7953 0 1.44 0.6447 1.44 1.44v20.16c0 0.7953-0.6447 1.44-1.44 1.44h-8.28c-0.7953 0-1.44-0.6447-1.44-1.44z" clip-path="url(#bl)" fill-opacity=".05"/><path transform="matrix(1.3333 0 0 -1.3333 0 164)" d="m236.1 69.42v-18.72c0-1.5906 1.2894-2.88 2.88-2.88h6.84c1.5906 0 2.88 1.2894 2.88 2.88v18.72c0 1.5906-1.2894 2.88-2.88 2.88h-6.84c-1.5906 0-2.88-1.2894-2.88-2.88z" clip-path="url(#bk)" fill-opacity=".05"/><path transform="matrix(1.3333 0 0 -1.3333 0 164)" d="m235.38 67.98v-17.28c0-2.3859 1.9341-4.32 4.32-4.32h5.4c2.3859 0 4.32 1.9341 4.32 4.32v17.28c0 2.3859-1.9341 4.32-4.32 4.32h-5.4c-2.3859 0-4.32-1.9341-4.32-4.32z" clip-path="url(#bj)" fill-opacity=".05"/><path transform="matrix(1.3333 0 0 -1.3333 0 164)" d="m286.32 60.78c0-6.3623-5.1577-11.52-11.52-11.52s-11.52 5.1577-11.52 11.52 5.1577 11.52 11.52 11.52 11.52-5.1577 11.52-11.52z" clip-path="url(#bi)" fill-opacity=".05"/><path transform="matrix(1.3333 0 0 -1.3333 0 164)" d="m287.04 60.06c0-6.76-5.48-12.24-12.24-12.24s-12.24 5.48-12.24 12.24 5.48 12.24 12.24 12.24 12.24-5.48 12.24-12.24z" clip-path="url(#bh)" fill-opacity=".05"/><path transform="matrix(1.3333 0 0 -1.3333 0 164)" d="m287.76 59.34c0-7.1576-5.8024-12.96-12.96-12.96s-12.96 5.8024-12.96 12.96 5.8024 12.96 12.96 12.96 12.96-5.8024 12.96-12.96z" clip-path="url(#bf)" fill-opacity=".05"/><path transform="matrix(1.3333 0 0 -1.3333 0 164)" d="m47.999 61.5h16.742" clip-path="url(#be)" fill="none" stroke="#000" stroke-miterlimit="2" stroke-width=".675"/><path transform="matrix(1.3333 0 0 -1.3333 0 164)" d="m57.181 63.995 7.56-2.4948-7.56-2.4948" clip-path="url(#bd)" fill="none" stroke="#000" stroke-miterlimit="2" stroke-width=".675"/><path transform="matrix(1.3333 0 0 -1.3333 0 164)" d="m74.46 63.93 28.682 14.341" clip-path="url(#bc)" fill="none" stroke="#000" stroke-miterlimit="2" stroke-width=".675"/><path transform="matrix(1.3333 0 0 -1.3333 0 164)" d="m95.264 77.121 7.8776 1.1496-5.6462-5.6124" clip-path="url(#bb)" fill="none" stroke="#000" stroke-miterlimit="2" stroke-width=".675"/><path transform="matrix(1.3333 0 0 -1.3333 0 164)" d="m74.46 59.07 28.682-14.341" clip-path="url(#ba)" fill="none" stroke="#000" stroke-miterlimit="2" stroke-width=".675"/><path transform="matrix(1.3333 0 0 -1.3333 0 164)" d="m97.496 50.342 5.6462-5.6124-7.8776 1.1496" clip-path="url(#az)" fill="none" stroke="#000" stroke-miterlimit="2" stroke-width=".675"/><path transform="matrix(1.3333 0 0 -1.3333 0 164)" d="m123.6 83.1h13.501 11.041 2.9997" clip-path="url(#ay)" fill="none" stroke="#000" stroke-miterlimit="2" stroke-width=".675"/><path transform="matrix(1.3333 0 0 -1.3333 0 164)" d="m143.58 85.595 7.56-2.4948-7.56-2.4948" clip-path="url(#ax)" fill="none" stroke="#000" stroke-miterlimit="2" stroke-width=".675"/><path transform="matrix(1.3333 0 0 -1.3333 0 164)" d="m123.6 39.9h27.543" clip-path="url(#aw)" fill="none" stroke="#000" stroke-miterlimit="2" stroke-width=".675"/><path transform="matrix(1.3333 0 0 -1.3333 0 164)" d="m143.58 42.395 7.56-2.4948-7.56-2.4948" clip-path="url(#au)" fill="none" stroke="#000" stroke-miterlimit="2" stroke-width=".675"/><path transform="matrix(1.3333 0 0 -1.3333 0 164)" d="m160.86 83.1h27.543" clip-path="url(#at)" fill="none" stroke="#000" stroke-miterlimit="2" stroke-width=".675"/><path transform="matrix(1.3333 0 0 -1.3333 0 164)" d="m180.84 85.595 7.56-2.4948-7.56-2.4948" clip-path="url(#as)" fill="none" stroke="#000" stroke-miterlimit="2" stroke-width=".675"/><path transform="matrix(1.3333 0 0 -1.3333 0 164)" d="m160.86 39.9h27.543" clip-path="url(#ar)" fill="none" stroke="#000" stroke-miterlimit="2" stroke-width=".675"/><path transform="matrix(1.3333 0 0 -1.3333 0 164)" d="m180.84 42.395 7.56-2.4948-7.56-2.4948" clip-path="url(#aq)" fill="none" stroke="#000" stroke-miterlimit="2" stroke-width=".675"/><path transform="matrix(1.3333 0 0 -1.3333 0 164)" d="m208.86 78.271 28.682-14.341" clip-path="url(#ap)" fill="none" stroke="#000" stroke-miterlimit="2" stroke-width=".675"/><path transform="matrix(1.3333 0 0 -1.3333 0 164)" d="m231.89 69.542 5.6461-5.6124-7.8776 1.1496" clip-path="url(#ao)" fill="none" stroke="#000" stroke-miterlimit="2" stroke-width=".675"/><path transform="matrix(1.3333 0 0 -1.3333 0 164)" d="m208.86 44.729 28.682 14.341" clip-path="url(#an)" fill="none" stroke="#000" stroke-miterlimit="2" stroke-width=".675"/><path transform="matrix(1.3333 0 0 -1.3333 0 164)" d="m229.66 57.921 7.8776 1.1496-5.6461-5.6124" clip-path="url(#am)" fill="none" stroke="#000" stroke-miterlimit="2" stroke-width=".675"/><path transform="matrix(1.3333 0 0 -1.3333 0 164)" d="m247.26 61.5h16.742" clip-path="url(#al)" fill="none" stroke="#000" stroke-miterlimit="2" stroke-width=".675"/><path transform="matrix(1.3333 0 0 -1.3333 0 164)" d="m256.44 63.995 7.56-2.4948-7.56-2.4948" clip-path="url(#aj)" fill="none" stroke="#000" stroke-miterlimit="2" stroke-width=".675"/><path transform="matrix(1.3333 0 0 -1.3333 0 164)" d="m64.74 72.3v-21.6h9.72v21.6z" clip-path="url(#ai)" fill="#fff" stroke="#000" stroke-miterlimit="2" stroke-width=".675"/><path transform="matrix(1.3333 0 0 -1.3333 0 164)" d="m66.493 75.212c0.0054 0.0219 0.0177 0.0725 0.0177 0.0725 0.0124 0.0519 0.0342 0.0861 0.0342 0.0861 0.0219 0.0342 0.0643 0.0342 0.0643 0.0342 0.3157 0 0.5549 0.0109 0.5549 0.0109 0.2392 0.0109 0.3636 0.0314 0.3636 0.0314 0.2091 0.0438 0.2597 0.2529 0.2597 0.2529l1.2001 4.8046c0.0342 0.1367 0.0342 0.2009 0.0342 0.2009 0 0.0601-0.2638 0.0601-0.2638 0.0601h-0.436c-0.5509 0-0.8625-0.2282-0.8625-0.2282-0.3117-0.2283-0.4019-0.4361-0.4019-0.4361-0.0902-0.2077-0.2146-0.611-0.2146-0.611-0.123-0.4032-0.2173-0.4209-0.2173-0.4209h-0.1326c-0.0889 0-0.0889 0.112-0.0889 0.112l0.6069 1.8111c0.0164 0.0807 0.0848 0.0807 0.0848 0.0807h4.7581c0.0902 0 0.0902-0.1148 0.0902-0.1148l-0.3076-1.8111c0-0.026-0.03-0.052-0.03-0.052-0.0301-0.0259-0.0561-0.0259-0.0561-0.0259h-0.1312c-0.0902 0-0.0902 0.112-0.0902 0.112 0.1148 0.6192 0.1148 0.9473 0.1148 0.9473 0 0.3854-0.2228 0.5112-0.2228 0.5112-0.2214 0.1257-0.6438 0.1257-0.6438 0.1257h-0.4278c-0.2297 0-0.2966-0.041-0.2966-0.041-0.0656-0.0396-0.1217-0.2583-0.1217-0.2583l-1.2001-4.8005c-0.0164-0.0683-0.0164-0.0861-0.0164-0.0861 0-0.0943 0.0683-0.1148 0.0683-0.1148 0.1367-0.0342 0.3841-0.0478 0.3841-0.0478 0.2474-0.0123 0.5509-0.0123 0.5509-0.0123 0.0902 0 0.0902-0.1149 0.0902-0.1149-0.0301-0.1161-0.0492-0.1544-0.0492-0.1544-0.0192-0.0383-0.1012-0.0383-0.1012-0.0383h-2.8786c-0.0861 0-0.0861 0.1148-0.0861 0.1148z" clip-path="url(#ah)"/><path transform="matrix(1.3333 0 0 -1.3333 0 164)" d="m73.952 75.745c0-0.8937-0.2268-1.3836-0.2268-1.3836-0.3607-0.686-1.0649-0.7109-1.0649-0.7109-0.5578 0-0.8946 0.4411-0.8946 0.4411-0.067 0.0794-0.1158 0.178-0.1158 0.178-0.2756 0.508-0.2756 1.4754-0.2756 1.4754 0 0.9003 0.2258 1.3902 0.2258 1.3902 0.3062 0.686 0.9923 0.7281 0.9923 0.7281h0.0736c0.5454 0 0.888-0.4343 0.888-0.4343v-0.0058c0.0861-0.111 0.1531-0.2449 0.1531-0.2449 0.2449-0.5205 0.2449-1.4333 0.2449-1.4333zm-1.2917-1.9596c0.3856 0 0.5932 0.3732 0.5932 0.3732 0.0861 0.1655 0.1225 0.3923 0.1225 0.3923 0.0679 0.3923 0.0679 1.2677 0.0679 1.2677 0 0.8506-0.0612 1.1941-0.0612 1.1941-0.11 0.5818-0.5636 0.6976-0.5636 0.6976-0.0794 0.0191-0.1588 0.0191-0.1588 0.0191-0.4287 0-0.6248-0.4287-0.6248-0.4287-0.0679-0.1473-0.1043-0.3559-0.1043-0.3559-0.0488-0.3301-0.0488-1.1262-0.0488-1.1262 0-0.9252 0.067-1.2926 0.067-1.2926 0.11-0.5875 0.5387-0.7157 0.5387-0.7157 0.0861-0.0249 0.1722-0.0249 0.1722-0.0249z" clip-path="url(#ag)"/><path transform="matrix(1.3333 0 0 -1.3333 0 164)" d="m48 61.5c0-5.9647-4.8353-10.8-10.8-10.8s-10.8 4.8353-10.8 10.8 4.8353 10.8 10.8 10.8 10.8-4.8353 10.8-10.8z" clip-path="url(#af)" fill="#fff" stroke="#000" stroke-miterlimit="2" stroke-width=".675"/><path transform="matrix(1.3333 0 0 -1.3333 0 164)" d="m39.36 61.5c0-1.1929-0.9671-2.16-2.16-2.16s-2.16 0.9671-2.16 2.16 0.9671 2.16 2.16 2.16 2.16-0.9671 2.16-2.16z" clip-path="url(#ae)"/><path transform="matrix(1.3333 0 0 -1.3333 0 164)" d="m34.461 45.461v-2.0817c0-0.2625 0.1052-0.3322 0.1052-0.3322 0.1217-0.0792 0.585-0.0792 0.585-0.0792h0.2105v-0.2707c-0.3061 0.026-1.2944 0.026-1.2944 0.026-0.98 0-1.2862-0.026-1.2862-0.026v0.2707h0.2105c0.5686 0 0.6561 0.1489 0.6561 0.1489 0.0341 0.0616 0.0341 0.2625 0.0341 0.2625v4.6104c0 0.2625-0.1052 0.3322-0.1052 0.3322-0.1217 0.0793-0.585 0.0793-0.585 0.0793h-0.2105v0.2706h3.0877c1.0156 0 1.628-0.6301 1.628-0.6301 0.4374-0.4374 0.4374-0.9965 0.4374-0.9965 0-0.6916-0.6739-1.1727-0.6739-1.1727-0.5782-0.4115-1.3217-0.4115-1.3217-0.4115zm-0.026 0.2283h1.2069c1.33 0 1.3902 1.155 1.3902 1.155v0.2009c0 0.7081-0.3144 1.0143-0.3144 1.0143-0.3499 0.3417-1.0758 0.3417-1.0758 0.3417h-0.7791c-0.3403 0-0.4018-0.1053-0.4018-0.1053v-0.0177c-0.026-0.052-0.026-0.2269-0.026-0.2269z" clip-path="url(#ad)"/><path transform="matrix(1.3333 0 0 -1.3333 0 164)" d="m41.245 43.345c0-0.8937-0.2268-1.3836-0.2268-1.3836-0.3607-0.686-1.0649-0.7109-1.0649-0.7109-0.5578 0-0.8946 0.4411-0.8946 0.4411-0.067 0.0794-0.1158 0.178-0.1158 0.178-0.2756 0.508-0.2756 1.4754-0.2756 1.4754 0 0.9003 0.2258 1.3902 0.2258 1.3902 0.3062 0.686 0.9922 0.7281 0.9922 0.7281h0.0737c0.5454 0 0.8879-0.4343 0.8879-0.4343v-0.0058c0.0861-0.111 0.1531-0.2449 0.1531-0.2449 0.245-0.5205 0.245-1.4333 0.245-1.4333zm-1.2917-1.9596c0.3856 0 0.5932 0.3732 0.5932 0.3732 0.0861 0.1655 0.1225 0.3923 0.1225 0.3923 0.0679 0.3923 0.0679 1.2677 0.0679 1.2677 0 0.8506-0.0612 1.1941-0.0612 1.1941-0.1101 0.5818-0.5636 0.6976-0.5636 0.6976-0.0794 0.0191-0.1588 0.0191-0.1588 0.0191-0.4287 0-0.6248-0.4287-0.6248-0.4287-0.068-0.1473-0.1043-0.3559-0.1043-0.3559-0.0488-0.3301-0.0488-1.1262-0.0488-1.1262 0-0.9252 0.067-1.2926 0.067-1.2926 0.11-0.5875 0.5386-0.7157 0.5386-0.7157 0.0862-0.0249 0.1723-0.0249 0.1723-0.0249z" clip-path="url(#ac)"/><path transform="matrix(1.3333 0 0 -1.3333 0 164)" d="m123.6 83.1c0-5.9647-4.8353-10.8-10.8-10.8s-10.8 4.8353-10.8 10.8 4.8353 10.8 10.8 10.8 10.8-4.8353 10.8-10.8z" clip-path="url(#ab)" fill="#fff" stroke="#000" stroke-miterlimit="2" stroke-width=".675"/><path transform="matrix(1.3333 0 0 -1.3333 0 164)" d="m110.06 67.061v-2.0817c0-0.2625 0.1052-0.3322 0.1052-0.3322 0.1217-0.0792 0.585-0.0792 0.585-0.0792h0.2105v-0.2707c-0.3061 0.026-1.2944 0.026-1.2944 0.026-0.98 0-1.2862-0.026-1.2862-0.026v0.2707h0.2105c0.5686 0 0.6561 0.1489 0.6561 0.1489 0.0342 0.0616 0.0342 0.2625 0.0342 0.2625v4.6105c0 0.2624-0.1053 0.3321-0.1053 0.3321-0.1217 0.0793-0.585 0.0793-0.585 0.0793h-0.2105v0.2706h3.0877c1.0156 0 1.628-0.6301 1.628-0.6301 0.4374-0.4374 0.4374-0.9965 0.4374-0.9965 0-0.6916-0.6739-1.1727-0.6739-1.1727-0.5782-0.4115-1.3217-0.4115-1.3217-0.4115zm-0.026 0.2283h1.207c1.3299 0 1.3901 1.155 1.3901 1.155v0.2009c0 0.7081-0.3144 1.0143-0.3144 1.0143-0.3499 0.3417-1.0757 0.3417-1.0757 0.3417h-0.7792c-0.3403 0-0.4018-0.1053-0.4018-0.1053v-0.0177c-0.026-0.052-0.026-0.2269-0.026-0.2269z" clip-path="url(#aa)"/><path transform="matrix(1.3333 0 0 -1.3333 0 164)" d="m115.83 66.904v-3.4349c0-0.1838 0.0728-0.2335 0.0728-0.2335 0.1042-0.0612 0.4965-0.0612 0.4965-0.0612h0.1962v-0.1895c-0.2143 0.0182-0.9922 0.0182-0.9922 0.0182-0.7779 0-0.9922-0.0182-0.9922-0.0182v0.1895h0.1961c0.4717 0 0.5387 0.1109 0.5387 0.1109l6e-3 0.0058c0.0249 0.0488 0.0249 0.178 0.0249 0.178v3.1718c-0.3186-0.1598-0.8018-0.1598-0.8018-0.1598v0.1904c0.7348 0 1.1137 0.3914 1.1137 0.3914 0.1168 0 0.1349-0.0422 0.1349-0.0422v-0.0066c7e-3 -0.0182 7e-3 -0.1101 7e-3 -0.1101z" clip-path="url(#y)"/><path transform="matrix(1.3333 0 0 -1.3333 0 164)" d="m123.6 39.9c0-5.9647-4.8353-10.8-10.8-10.8s-10.8 4.8353-10.8 10.8 4.8353 10.8 10.8 10.8 10.8-4.8353 10.8-10.8z" clip-path="url(#x)" fill="#fff" stroke="#000" stroke-miterlimit="2" stroke-width=".675"/><path transform="matrix(1.3333 0 0 -1.3333 0 164)" d="m110.06 23.861v-2.0817c0-0.2625 0.1052-0.3322 0.1052-0.3322 0.1217-0.0792 0.585-0.0792 0.585-0.0792h0.2105v-0.2707c-0.3061 0.026-1.2944 0.026-1.2944 0.026-0.98 0-1.2862-0.026-1.2862-0.026v0.2707h0.2105c0.5686 0 0.6561 0.1489 0.6561 0.1489 0.0342 0.0616 0.0342 0.2625 0.0342 0.2625v4.6105c0 0.2624-0.1053 0.3321-0.1053 0.3321-0.1217 0.0793-0.585 0.0793-0.585 0.0793h-0.2105v0.2706h3.0877c1.0156 0 1.628-0.6301 1.628-0.6301 0.4374-0.4374 0.4374-0.9965 0.4374-0.9965 0-0.6916-0.6739-1.1727-0.6739-1.1727-0.5782-0.4115-1.3217-0.4115-1.3217-0.4115zm-0.026 0.2283h1.207c1.3299 0 1.3901 1.155 1.3901 1.155v0.2009c0 0.7081-0.3144 1.0143-0.3144 1.0143-0.3499 0.3417-1.0757 0.3417-1.0757 0.3417h-0.7792c-0.3403 0-0.4018-0.1053-0.4018-0.1053v-0.0177c-0.026-0.052-0.026-0.2269-0.026-0.2269z" clip-path="url(#w)"/><path transform="matrix(1.3333 0 0 -1.3333 0 164)" d="m116.78 20.851-0.1722-1.0659h-2.2715c0 0.1531 0.0363 0.1962 0.0363 0.1962l0.0307 0.0306 1.1759 1.3099c0.643 0.7233 0.643 1.3538 0.643 1.3538 0 0.5445-0.3301 0.8267-0.3301 0.8267l-7e-3 0.0058h-6e-3c-0.1961 0.1655-0.4774 0.1655-0.4774 0.1655-0.4411 0-0.7042-0.3799-0.7042-0.3799-0.0737-0.11-0.1225-0.2449-0.1225-0.2449 0.0182 0.0067 0.0794 0.0067 0.0794 0.0067 0.245 0 0.3119-0.221 0.3119-0.221v-0.0058c0.0125-0.043 0.0125-0.0918 0.0125-0.0918 0-0.245-0.2325-0.3129-0.2325-0.3129-0.0488-0.0115-0.0862-0.0115-0.0862-0.0115-0.2267 0-0.2994 0.1895-0.2994 0.1895-0.0249 0.0669-0.0249 0.1531-0.0249 0.1531 0 0.4717 0.3617 0.8085 0.3617 0.8085 0.3243 0.2994 0.7836 0.2994 0.7836 0.2994 0.6736 0 1.0467-0.4525 1.0467-0.4525 0.2144-0.2631 0.245-0.6248 0.245-0.6248 7e-3 -0.0555 7e-3 -0.1101 7e-3 -0.1101 0-0.4468-0.3368-0.8515-0.3368-0.8515-0.178-0.2076-0.5511-0.5511-0.5511-0.5511l-0.3741-0.3301-0.0613-0.0555-0.6487-0.6306h1.1022c0.5387 0 0.5818 0.0488 0.5818 0.0488 0.0612 0.0861 0.1349 0.5454 0.1349 0.5454h0.1531z" clip-path="url(#v)"/><path transform="matrix(1.3333 0 0 -1.3333 0 164)" d="m151.14 93.9v-21.6h9.72v21.6z" clip-path="url(#u)" fill="#fff" stroke="#000" stroke-miterlimit="2" stroke-width=".675"/><path transform="matrix(1.3333 0 0 -1.3333 0 164)" d="m152.89 96.812c5e-3 0.0219 0.0177 0.0725 0.0177 0.0725 0.0123 0.0519 0.0342 0.0861 0.0342 0.0861 0.0219 0.0342 0.0643 0.0342 0.0643 0.0342 0.3157 0 0.5549 0.0109 0.5549 0.0109 0.2392 0.0109 0.3636 0.0314 0.3636 0.0314 0.2091 0.0438 0.2597 0.2529 0.2597 0.2529l1.2001 4.8046c0.0342 0.1367 0.0342 0.2009 0.0342 0.2009 0 0.0601-0.2638 0.0601-0.2638 0.0601h-0.436c-0.5509 0-0.8625-0.2282-0.8625-0.2282-0.3117-0.2283-0.4019-0.4361-0.4019-0.4361-0.0902-0.2077-0.2146-0.611-0.2146-0.611-0.123-0.4032-0.2173-0.421-0.2173-0.421h-0.1326c-0.0889 0-0.0889 0.1121-0.0889 0.1121l0.6069 1.8111c0.0164 0.0807 0.0848 0.0807 0.0848 0.0807h4.7581c0.0902 0 0.0902-0.1148 0.0902-0.1148l-0.3076-1.8111c0-0.026-0.03-0.052-0.03-0.052-0.0301-0.026-0.0561-0.026-0.0561-0.026h-0.1312c-0.0902 0-0.0902 0.1121-0.0902 0.1121 0.1148 0.6192 0.1148 0.9473 0.1148 0.9473 0 0.3854-0.2228 0.5112-0.2228 0.5112-0.2214 0.1257-0.6438 0.1257-0.6438 0.1257h-0.4278c-0.2297 0-0.2966-0.041-0.2966-0.041-0.0657-0.0396-0.1217-0.2583-0.1217-0.2583l-1.2001-4.8005c-0.0164-0.0683-0.0164-0.0861-0.0164-0.0861 0-0.0943 0.0683-0.1148 0.0683-0.1148 0.1367-0.0342 0.3841-0.0478 0.3841-0.0478 0.2474-0.0123 0.5509-0.0123 0.5509-0.0123 0.0902 0 0.0902-0.1149 0.0902-0.1149-0.0301-0.1161-0.0492-0.1544-0.0492-0.1544-0.0192-0.0383-0.1012-0.0383-0.1012-0.0383h-2.8786c-0.0861 0-0.0861 0.1148-0.0861 0.1148z" clip-path="url(#t)"/><path transform="matrix(1.3333 0 0 -1.3333 0 164)" d="m159.34 99.304v-3.4349c0-0.1838 0.0727-0.2335 0.0727-0.2335 0.1043-0.0612 0.4966-0.0612 0.4966-0.0612h0.1961v-0.1895c-0.2143 0.0182-0.9922 0.0182-0.9922 0.0182-0.7779 0-0.9922-0.0182-0.9922-0.0182v0.1895h0.1961c0.4717 0 0.5387 0.1109 0.5387 0.1109l6e-3 0.0058c0.0249 0.0488 0.0249 0.178 0.0249 0.178v3.1718c-0.3189-0.1598-0.8021-0.1598-0.8021-0.1598v0.1904c0.7348 0 1.1138 0.3913 1.1138 0.3913 0.1167 0 0.1349-0.0421 0.1349-0.0421v-0.0067c7e-3 -0.0181 7e-3 -0.11 7e-3 -0.11z" clip-path="url(#s)"/><path transform="matrix(1.3333 0 0 -1.3333 0 164)" d="m151.14 50.7v-21.6h9.72v21.6z" clip-path="url(#r)" fill="#fff" stroke="#000" stroke-miterlimit="2" stroke-width=".675"/><path transform="matrix(1.3333 0 0 -1.3333 0 164)" d="m152.89 53.612c5e-3 0.0219 0.0177 0.0725 0.0177 0.0725 0.0123 0.0519 0.0342 0.0861 0.0342 0.0861 0.0219 0.0342 0.0643 0.0342 0.0643 0.0342 0.3157 0 0.5549 0.0109 0.5549 0.0109 0.2392 0.0109 0.3636 0.0314 0.3636 0.0314 0.2091 0.0438 0.2597 0.2529 0.2597 0.2529l1.2001 4.8046c0.0342 0.1367 0.0342 0.2009 0.0342 0.2009 0 0.0601-0.2638 0.0601-0.2638 0.0601h-0.436c-0.5509 0-0.8625-0.2282-0.8625-0.2282-0.3117-0.2283-0.4019-0.4361-0.4019-0.4361-0.0902-0.2077-0.2146-0.611-0.2146-0.611-0.123-0.4032-0.2173-0.421-0.2173-0.421h-0.1326c-0.0889 0-0.0889 0.1121-0.0889 0.1121l0.6069 1.8111c0.0164 0.0807 0.0848 0.0807 0.0848 0.0807h4.7581c0.0902 0 0.0902-0.1148 0.0902-0.1148l-0.3076-1.8111c0-0.026-0.03-0.052-0.03-0.052-0.0301-0.026-0.0561-0.026-0.0561-0.026h-0.1312c-0.0902 0-0.0902 0.1121-0.0902 0.1121 0.1148 0.6192 0.1148 0.9473 0.1148 0.9473 0 0.3854-0.2228 0.5112-0.2228 0.5112-0.2214 0.1257-0.6438 0.1257-0.6438 0.1257h-0.4278c-0.2297 0-0.2966-0.041-0.2966-0.041-0.0657-0.0396-0.1217-0.2583-0.1217-0.2583l-1.2001-4.8005c-0.0164-0.0683-0.0164-0.0861-0.0164-0.0861 0-0.0943 0.0683-0.1148 0.0683-0.1148 0.1367-0.0342 0.3841-0.0478 0.3841-0.0478 0.2474-0.0123 0.5509-0.0123 0.5509-0.0123 0.0902 0 0.0902-0.1149 0.0902-0.1149-0.0301-0.1161-0.0492-0.1544-0.0492-0.1544-0.0192-0.0383-0.1012-0.0383-0.1012-0.0383h-2.8786c-0.0861 0-0.0861 0.1148-0.0861 0.1148z" clip-path="url(#q)"/><path transform="matrix(1.3333 0 0 -1.3333 0 164)" d="m160.28 53.251-0.1722-1.0659h-2.2715c0 0.1531 0.0364 0.1962 0.0364 0.1962l0.0306 0.0306 1.1759 1.3099c0.643 0.7233 0.643 1.3538 0.643 1.3538 0 0.5445-0.3301 0.8267-0.3301 0.8267l-7e-3 0.0058h-6e-3c-0.1962 0.1655-0.4775 0.1655-0.4775 0.1655-0.4411 0-0.7042-0.3799-0.7042-0.3799-0.0737-0.11-0.1225-0.2449-0.1225-0.2449 0.0182 0.0067 0.0794 0.0067 0.0794 0.0067 0.245 0 0.312-0.221 0.312-0.221v-0.0058c0.0124-0.043 0.0124-0.0918 0.0124-0.0918 0-0.245-0.2325-0.3129-0.2325-0.3129-0.0488-0.0115-0.0861-0.0115-0.0861-0.0115-0.2268 0-0.2995 0.1895-0.2995 0.1895-0.0249 0.0669-0.0249 0.1531-0.0249 0.1531 0 0.4717 0.3617 0.8085 0.3617 0.8085 0.3244 0.2994 0.7836 0.2994 0.7836 0.2994 0.6736 0 1.0468-0.4525 1.0468-0.4525 0.2143-0.2631 0.2449-0.6248 0.2449-0.6248 7e-3 -0.0555 7e-3 -0.1101 7e-3 -0.1101 0-0.4468-0.3368-0.8515-0.3368-0.8515-0.1779-0.2077-0.5511-0.5511-0.5511-0.5511l-0.3741-0.3301-0.0613-0.0555-0.6487-0.6306h1.1023c0.5387 0 0.5817 0.0488 0.5817 0.0488 0.0613 0.0861 0.1349 0.5454 0.1349 0.5454h0.1531z" clip-path="url(#p)"/><path transform="matrix(1.3333 0 0 -1.3333 0 164)" d="m210 83.1c0-5.9647-4.8353-10.8-10.8-10.8s-10.8 4.8353-10.8 10.8 4.8353 10.8 10.8 10.8 10.8-4.8353 10.8-10.8z" clip-path="url(#n)" fill="#fff" stroke="#000" stroke-miterlimit="2" stroke-width=".675"/><path transform="matrix(1.3333 0 0 -1.3333 0 164)" d="m196.46 67.061v-2.0817c0-0.2625 0.1052-0.3322 0.1052-0.3322 0.1217-0.0792 0.585-0.0792 0.585-0.0792h0.2105v-0.2707c-0.3061 0.026-1.2944 0.026-1.2944 0.026-0.98 0-1.2862-0.026-1.2862-0.026v0.2707h0.2105c0.5686 0 0.6561 0.1489 0.6561 0.1489 0.0341 0.0616 0.0341 0.2625 0.0341 0.2625v4.6105c0 0.2624-0.1052 0.3321-0.1052 0.3321-0.1217 0.0793-0.585 0.0793-0.585 0.0793h-0.2105v0.2706h3.0878c1.0155 0 1.6279-0.6301 1.6279-0.6301 0.4374-0.4374 0.4374-0.9965 0.4374-0.9965 0-0.6916-0.6739-1.1727-0.6739-1.1727-0.5782-0.4115-1.3217-0.4115-1.3217-0.4115zm-0.026 0.2283h1.2069c1.33 0 1.3902 1.155 1.3902 1.155v0.2009c0 0.7081-0.3144 1.0143-0.3144 1.0143-0.3499 0.3417-1.0758 0.3417-1.0758 0.3417h-0.7791c-0.3403 0-0.4018-0.1053-0.4018-0.1053v-0.0177c-0.026-0.052-0.026-0.2269-0.026-0.2269z" clip-path="url(#m)"/><path transform="matrix(1.3333 0 0 -1.3333 0 164)" d="m202.2 65.141c0.6123-0.1225 0.8821-0.5999 0.8821-0.5999 0.1407-0.2392 0.1407-0.509 0.1407-0.509 0-0.5205-0.4287-0.8755-0.4287-0.8755-0.3741-0.3062-0.8755-0.3062-0.8755-0.3062-0.6066 0-0.974 0.3617-0.974 0.3617-0.2631 0.2574-0.2631 0.5999-0.2631 0.5999 0 0.288 0.2574 0.3425 0.2574 0.3425 0.0421 0.0125 0.0851 0.0125 0.0851 0.0125 0.2325 0 0.3129-0.1962 0.3129-0.1962 0.0239-0.0794 0.0306-0.1464 0.0306-0.1464 0-0.2449-0.221-0.3186-0.221-0.3186-0.0851-0.0306-0.1837-0.0182-0.1837-0.0182 0.2268-0.3798 0.7836-0.4535 0.7836-0.4535 0.0804-0.0124 0.1531-0.0124 0.1531-0.0124 0.3923 0 0.576 0.3865 0.576 0.3865 0.1167 0.245 0.1167 0.6239 0.1167 0.6239 0 0.8152-0.4898 0.9797-0.4898 0.9797-0.111 0.0374-0.2392 0.0374-0.2392 0.0374h-0.2699c-0.1339 0-0.1464 0.0669-0.1464 0.0669 0 0.0613 0.0919 0.0737 0.0919 0.0737 0.0919 0 0.2382 0.0182 0.2382 0.0182 0.3129 0.0124 0.4899 0.2392 0.4899 0.2392v0.0057l7e-3 0.0067 6e-3 0.0058h7e-3l0.0363 0.0612c0.1713 0.288 0.1713 0.6985 0.1713 0.6985 0 0.5693-0.4411 0.6669-0.4411 0.6669-0.0727 0.0182-0.1464 0.0182-0.1464 0.0182-0.4286 0-0.6985-0.245-0.6985-0.245-0.0669-0.0612-0.1157-0.1339-0.1157-0.1339 0.3789 0 0.3789-0.3062 0.3789-0.3062 0-0.221-0.1895-0.2947-0.1895-0.2947-0.0555-0.0182-0.1225-0.0182-0.1225-0.0182-0.2392 0-0.3004 0.2143-0.3004 0.2143v0.0067c-0.0115 0.0488-0.0115 0.0976-0.0115 0.0976 0 0.4105 0.4038 0.6554 0.4038 0.6554 0.2937 0.1771 0.6793 0.1771 0.6793 0.1771 0.5579 0 0.9004-0.3302 0.9004-0.3302l0.0124-0.0124c0.2144-0.2201 0.2144-0.5023 0.2144-0.5023 0-0.5081-0.4344-0.8506-0.4344-0.8506-0.1904-0.1474-0.4229-0.2268-0.4229-0.2268z" clip-path="url(#l)"/><path transform="matrix(1.3333 0 0 -1.3333 0 164)" d="m210 39.9c0-5.9647-4.8353-10.8-10.8-10.8s-10.8 4.8353-10.8 10.8 4.8353 10.8 10.8 10.8 10.8-4.8353 10.8-10.8z" clip-path="url(#k)" fill="#fff" stroke="#000" stroke-miterlimit="2" stroke-width=".675"/><path transform="matrix(1.3333 0 0 -1.3333 0 164)" d="m196.46 23.861v-2.0817c0-0.2625 0.1052-0.3322 0.1052-0.3322 0.1217-0.0792 0.585-0.0792 0.585-0.0792h0.2105v-0.2707c-0.3061 0.026-1.2944 0.026-1.2944 0.026-0.98 0-1.2862-0.026-1.2862-0.026v0.2707h0.2105c0.5686 0 0.6561 0.1489 0.6561 0.1489 0.0341 0.0616 0.0341 0.2625 0.0341 0.2625v4.6105c0 0.2624-0.1052 0.3321-0.1052 0.3321-0.1217 0.0793-0.585 0.0793-0.585 0.0793h-0.2105v0.2706h3.0878c1.0155 0 1.6279-0.6301 1.6279-0.6301 0.4374-0.4374 0.4374-0.9965 0.4374-0.9965 0-0.6916-0.6739-1.1727-0.6739-1.1727-0.5782-0.4115-1.3217-0.4115-1.3217-0.4115zm-0.026 0.2283h1.2069c1.33 0 1.3902 1.155 1.3902 1.155v0.2009c0 0.7081-0.3144 1.0143-0.3144 1.0143-0.3499 0.3417-1.0758 0.3417-1.0758 0.3417h-0.7791c-0.3403 0-0.4018-0.1053-0.4018-0.1053v-0.0177c-0.026-0.052-0.026-0.2269-0.026-0.2269z" clip-path="url(#j)"/><path transform="matrix(1.3333 0 0 -1.3333 0 164)" d="m200.6 20.795v0.1895l1.8801 2.8723c0.0488 0.0737 0.1225 0.0737 0.1225 0.0737 0.0861 0 0.0976-0.068 0.0976-0.068v-2.878h0.6123v-0.1895h-0.6123v-0.5329c0-0.1895 0.0737-0.2325 0.0737-0.2325 0.0861-0.0555 0.3923-0.0555 0.3923-0.0555h0.1282v-0.1895c-0.2507 0.0182-0.8325 0.0182-0.8325 0.0182-0.576 0-0.8266-0.0182-0.8266-0.0182v0.1895h0.1282c0.3798 0 0.4411 0.1043 0.4411 0.1043 0.0248 0.043 0.0248 0.1837 0.0248 0.1837v0.5329zm1.6658 0.1895v2.2848l-1.4945-2.2848z" clip-path="url(#i)"/><path transform="matrix(1.3333 0 0 -1.3333 0 164)" d="m237.54 72.3v-21.6h9.72v21.6z" clip-path="url(#h)" fill="#fff" stroke="#000" stroke-miterlimit="2" stroke-width=".675"/><path transform="matrix(1.3333 0 0 -1.3333 0 164)" d="m239.29 75.212c5e-3 0.0219 0.0177 0.0725 0.0177 0.0725 0.0124 0.0519 0.0342 0.0861 0.0342 0.0861 0.0219 0.0342 0.0643 0.0342 0.0643 0.0342 0.3157 0 0.5549 0.0109 0.5549 0.0109 0.2392 0.0109 0.3636 0.0314 0.3636 0.0314 0.2091 0.0438 0.2597 0.2529 0.2597 0.2529l1.2001 4.8046c0.0342 0.1367 0.0342 0.2009 0.0342 0.2009 0 0.0601-0.2638 0.0601-0.2638 0.0601h-0.436c-0.5509 0-0.8625-0.2282-0.8625-0.2282-0.3117-0.2283-0.4019-0.4361-0.4019-0.4361-0.0902-0.2077-0.2146-0.611-0.2146-0.611-0.123-0.4032-0.2173-0.4209-0.2173-0.4209h-0.1326c-0.0889 0-0.0889 0.112-0.0889 0.112l0.6069 1.8111c0.0164 0.0807 0.0848 0.0807 0.0848 0.0807h4.7581c0.0902 0 0.0902-0.1148 0.0902-0.1148l-0.3076-1.8111c0-0.026-0.03-0.052-0.03-0.052-0.0301-0.0259-0.0561-0.0259-0.0561-0.0259h-0.1312c-0.0902 0-0.0902 0.112-0.0902 0.112 0.1148 0.6192 0.1148 0.9473 0.1148 0.9473 0 0.3854-0.2228 0.5112-0.2228 0.5112-0.2214 0.1257-0.6438 0.1257-0.6438 0.1257h-0.4278c-0.2297 0-0.2966-0.041-0.2966-0.041-0.0656-0.0396-0.1217-0.2583-0.1217-0.2583l-1.2001-4.8005c-0.0164-0.0683-0.0164-0.0861-0.0164-0.0861 0-0.0943 0.0683-0.1148 0.0683-0.1148 0.1367-0.0342 0.3841-0.0478 0.3841-0.0478 0.2474-0.0123 0.5509-0.0123 0.5509-0.0123 0.0902 0 0.0902-0.1149 0.0902-0.1149-0.0301-0.1161-0.0492-0.1544-0.0492-0.1544-0.0192-0.0383-0.1012-0.0383-0.1012-0.0383h-2.8786c-0.0861 0-0.0861 0.1148-0.0861 0.1148z" clip-path="url(#g)"/><path transform="matrix(1.3333 0 0 -1.3333 0 164)" d="m245.71 75.941c0.6123-0.1225 0.8822-0.5999 0.8822-0.5999 0.1406-0.2392 0.1406-0.509 0.1406-0.509 0-0.5205-0.4286-0.8755-0.4286-0.8755-0.3741-0.3062-0.8755-0.3062-0.8755-0.3062-0.6066 0-0.9741 0.3617-0.9741 0.3617-0.2631 0.2574-0.2631 0.5999-0.2631 0.5999 0 0.288 0.2574 0.3425 0.2574 0.3425 0.0421 0.0125 0.0852 0.0125 0.0852 0.0125 0.2325 0 0.3128-0.1962 0.3128-0.1962 0.024-0.0794 0.0307-0.1464 0.0307-0.1464 0-0.2449-0.2211-0.3186-0.2211-0.3186-0.0851-0.0306-0.1837-0.0182-0.1837-0.0182 0.2268-0.3798 0.7837-0.4535 0.7837-0.4535 0.0803-0.0124 0.153-0.0124 0.153-0.0124 0.3923 0 0.576 0.3865 0.576 0.3865 0.1168 0.245 0.1168 0.6239 0.1168 0.6239 0 0.8152-0.4899 0.9797-0.4899 0.9797-0.111 0.0374-0.2392 0.0374-0.2392 0.0374h-0.2698c-0.134 0-0.1464 0.0669-0.1464 0.0669 0 0.0613 0.0918 0.0737 0.0918 0.0737 0.0919 0 0.2383 0.0182 0.2383 0.0182 0.3128 0.0124 0.4899 0.2392 0.4899 0.2392v0.0057l7e-3 0.0067 6e-3 0.0058h7e-3l0.0364 0.0612c0.1712 0.288 0.1712 0.6985 0.1712 0.6985 0 0.5693-0.4411 0.6669-0.4411 0.6669-0.0727 0.0182-0.1464 0.0182-0.1464 0.0182-0.4286 0-0.6984-0.245-0.6984-0.245-0.067-0.0612-0.1158-0.1339-0.1158-0.1339 0.3789 0 0.3789-0.3062 0.3789-0.3062 0-0.221-0.1895-0.2947-0.1895-0.2947-0.0554-0.0182-0.1224-0.0182-0.1224-0.0182-0.2392 0-0.3005 0.2143-0.3005 0.2143v0.0067c-0.0115 0.0488-0.0115 0.0976-0.0115 0.0976 0 0.4105 0.4038 0.6554 0.4038 0.6554 0.2938 0.177 0.6794 0.177 0.6794 0.177 0.5578 0 0.9003-0.3301 0.9003-0.3301l0.0125-0.0124c0.2143-0.2201 0.2143-0.5023 0.2143-0.5023 0-0.5081-0.4344-0.8506-0.4344-0.8506-0.1904-0.1474-0.4229-0.2268-0.4229-0.2268z" clip-path="url(#f)"/><path transform="matrix(1.3333 0 0 -1.3333 0 164)" d="m285.6 61.5c0-5.9647-4.8353-10.8-10.8-10.8s-10.8 4.8353-10.8 10.8 4.8353 10.8 10.8 10.8 10.8-4.8353 10.8-10.8z" clip-path="url(#e)" fill="#fff" stroke="#000" stroke-miterlimit="2" stroke-width=".675"/><path transform="matrix(1.3333 0 0 -1.3333 0 164)" d="m272.06 45.461v-2.0817c0-0.2625 0.1052-0.3322 0.1052-0.3322 0.1217-0.0792 0.585-0.0792 0.585-0.0792h0.2106v-0.2707c-0.3062 0.026-1.2945 0.026-1.2945 0.026-0.9801 0-1.2862-0.026-1.2862-0.026v0.2707h0.2105c0.5686 0 0.6561 0.1489 0.6561 0.1489 0.0342 0.0616 0.0342 0.2625 0.0342 0.2625v4.6104c0 0.2625-0.1053 0.3322-0.1053 0.3322-0.1216 0.0793-0.585 0.0793-0.585 0.0793h-0.2105v0.2706h3.0878c1.0155 0 1.6279-0.6301 1.6279-0.6301 0.4374-0.4374 0.4374-0.9965 0.4374-0.9965 0-0.6916-0.6739-1.1727-0.6739-1.1727-0.5782-0.4115-1.3217-0.4115-1.3217-0.4115zm-0.026 0.2283h1.2069c1.33 0 1.3902 1.155 1.3902 1.155v0.2009c0 0.7081-0.3144 1.0143-0.3144 1.0143-0.3499 0.3417-1.0758 0.3417-1.0758 0.3417h-0.7791c-0.3403 0-0.4018-0.1053-0.4018-0.1053v-0.0177c-0.026-0.052-0.026-0.2269-0.026-0.2269z" clip-path="url(#c)"/><path transform="matrix(1.3333 0 0 -1.3333 0 164)" d="m278.78 42.616c0-0.6306-0.4717-1.041-0.4717-1.041-0.3799-0.3244-0.864-0.3244-0.864-0.3244-0.5626 0-0.8937 0.4717-0.8937 0.4717-0.2143 0.3004-0.2143 0.6487-0.2143 0.6487 0 0.2823 0.2507 0.3186 0.2507 0.3186 0.0249 0.0067 0.0497 0.0067 0.0497 0.0067 0.2258 0 0.2938-0.2028 0.2938-0.2028 0.0124-0.0488 0.0124-0.0976 0.0124-0.0976 0-0.1961-0.1722-0.2698-0.1722-0.2698-0.0612-0.0306-0.134-0.0306-0.134-0.0306-0.0679 0-0.1042 0.0124-0.1042 0.0124 0.11-0.3856 0.4716-0.575 0.4716-0.575 0.2019-0.111 0.4287-0.111 0.4287-0.111 0.4095 0 0.6545 0.398 0.6545 0.398 0.1473 0.2574 0.1473 0.8391 0.1473 0.8391 0 0.5148-0.11 0.7722-0.11 0.7722-0.1713 0.3913-0.5205 0.3913-0.5205 0.3913-0.4966 0-0.7904-0.4286-0.7904-0.4286-0.0363-0.0546-0.0794-0.0546-0.0794-0.0546-0.0794 0-0.0861 0.0852-0.0861 0.0852v1.8859c0 0.1416 0.0613 0.1473 0.0613 0.1473 0.0248 0 0.0736-0.0182 0.0736-0.0182 0.3856-0.1712 0.8143-0.1712 0.8143-0.1712 0.4411 0 0.8334 0.177 0.8334 0.177 0.0306 0.0181 0.0488 0.0181 0.0488 0.0181 0.0612 0 0.0612-0.0669 0.0612-0.0669 0-0.0794-0.1962-0.2574-0.1962-0.2574-0.4162-0.3799-0.9855-0.3799-0.9855-0.3799-0.2574 0-0.5205 0.0804-0.5205 0.0804v-1.1941c0.3186 0.3119 0.7779 0.3119 0.7779 0.3119 0.5387 0 0.8879-0.4717 0.8879-0.4717 0.2756-0.3731 0.2756-0.8697 0.2756-0.8697z" clip-path="url(#b)"/></g></svg>
