<?xml version="1.0" encoding="UTF-8"?>
<svg width="59.267mm" height="26.458mm" version="1.1" viewBox="0 0 59.267 26.458" xml:space="preserve" xmlns="http://www.w3.org/2000/svg"><defs><clipPath id="w"><path d="m0 0h168v75h-168z"/></clipPath><clipPath id="l"><path d="m0 0h168v75h-168z"/></clipPath><clipPath id="g"><path d="m0 0h168v75h-168z"/></clipPath><clipPath id="f"><path d="m0 0h168v75h-168z"/></clipPath><clipPath id="e"><path d="m0 0h168v75h-168z"/></clipPath><clipPath id="d"><path d="m0 0h168v75h-168z"/></clipPath><clipPath id="c"><path d="m0 0h168v75h-168z"/></clipPath><clipPath id="b"><path d="m0 0h168v75h-168z"/></clipPath><clipPath id="a"><path d="m0 0h168v75h-168z"/></clipPath><clipPath id="v"><path d="m0 0h168v75h-168z"/></clipPath><clipPath id="u"><path d="m0 0h168v75h-168z"/></clipPath><clipPath id="t"><path d="m0 0h168v75h-168z"/></clipPath><clipPath id="s"><path d="m0 0h168v75h-168z"/></clipPath><clipPath id="r"><path d="m0 0h168v75h-168z"/></clipPath><clipPath id="q"><path d="m0 0h168v75h-168z"/></clipPath><clipPath id="p"><path d="m0 0h168v75h-168z"/></clipPath><clipPath id="o"><path d="m0 0h168v75h-168z"/></clipPath><clipPath id="n"><path d="m0 0h168v75h-168z"/></clipPath><clipPath id="m"><path d="m0 0h168v75h-168z"/></clipPath><clipPath id="k"><path d="m0 0h168v75h-168z"/></clipPath><clipPath id="j"><path d="m0 0h168v75h-168z"/></clipPath><clipPath id="i"><path d="m0 0h168v75h-168z"/></clipPath><clipPath id="h"><path d="m0 0h168v75h-168z"/></clipPath></defs><g transform="matrix(.26458 0 0 .26458 4.882e-6 0)"><path transform="matrix(1.3333 0 0 -1.3333 0 100)" d="m41.52 36.78c0-6.3623-5.1577-11.52-11.52-11.52s-11.52 5.1577-11.52 11.52 5.1577 11.52 11.52 11.52 11.52-5.1577 11.52-11.52z" clip-path="url(#w)" fill-opacity=".05"/><path transform="matrix(1.3333 0 0 -1.3333 0 100)" d="m42.24 36.06c0-6.76-5.48-12.24-12.24-12.24s-12.24 5.48-12.24 12.24 5.48 12.24 12.24 12.24 12.24-5.48 12.24-12.24z" clip-path="url(#l)" fill-opacity=".05"/><path transform="matrix(1.3333 0 0 -1.3333 0 100)" d="m42.96 35.34c0-7.1576-5.8024-12.96-12.96-12.96s-12.96 5.8024-12.96 12.96 5.8024 12.96 12.96 12.96 12.96-5.8024 12.96-12.96z" clip-path="url(#g)" fill-opacity=".05"/><path transform="matrix(1.3333 0 0 -1.3333 0 100)" d="m78.42 46.86v-20.16c0-0.7953 0.6447-1.44 1.44-1.44h8.28c0.7953 0 1.44 0.6447 1.44 1.44v20.16c0 0.7953-0.6447 1.44-1.44 1.44h-8.28c-0.7953 0-1.44-0.6447-1.44-1.44z" clip-path="url(#f)" fill-opacity=".05"/><path transform="matrix(1.3333 0 0 -1.3333 0 100)" d="m77.7 45.42v-18.72c0-1.5906 1.2894-2.88 2.88-2.88h6.84c1.5906 0 2.88 1.2894 2.88 2.88v18.72c0 1.5906-1.2894 2.88-2.88 2.88h-6.84c-1.5906 0-2.88-1.2894-2.88-2.88z" clip-path="url(#e)" fill-opacity=".05"/><path transform="matrix(1.3333 0 0 -1.3333 0 100)" d="m76.98 43.98v-17.28c0-2.3859 1.9341-4.32 4.32-4.32h5.4c2.3859 0 4.32 1.9341 4.32 4.32v17.28c0 2.3859-1.9341 4.32-4.32 4.32h-5.4c-2.3859 0-4.32-1.9341-4.32-4.32z" clip-path="url(#d)" fill-opacity=".05"/><path transform="matrix(1.3333 0 0 -1.3333 0 100)" d="m149.52 36.78c0-6.3623-5.1577-11.52-11.52-11.52s-11.52 5.1577-11.52 11.52 5.1577 11.52 11.52 11.52 11.52-5.1577 11.52-11.52z" clip-path="url(#c)" fill-opacity=".05"/><path transform="matrix(1.3333 0 0 -1.3333 0 100)" d="m150.24 36.06c0-6.76-5.48-12.24-12.24-12.24s-12.24 5.48-12.24 12.24 5.48 12.24 12.24 12.24 12.24-5.48 12.24-12.24z" clip-path="url(#b)" fill-opacity=".05"/><path transform="matrix(1.3333 0 0 -1.3333 0 100)" d="m150.96 35.34c0-7.1576-5.8024-12.96-12.96-12.96s-12.96 5.8024-12.96 12.96 5.8024 12.96 12.96 12.96 12.96-5.8024 12.96-12.96z" clip-path="url(#a)" fill-opacity=".05"/><path transform="matrix(1.3333 0 0 -1.3333 0 100)" d="m40.797 37.5h38.344" clip-path="url(#v)" fill="none" stroke="#000" stroke-miterlimit="2" stroke-width=".675"/><path transform="matrix(1.3333 0 0 -1.3333 0 100)" d="m71.582 39.995 7.56-2.4948-7.56-2.4948" clip-path="url(#u)" fill="none" stroke="#000" stroke-miterlimit="2" stroke-width=".675"/><path transform="matrix(1.3333 0 0 -1.3333 0 100)" d="m88.858 37.5h38.344" clip-path="url(#t)" fill="none" stroke="#000" stroke-miterlimit="2" stroke-width=".675"/><path transform="matrix(1.3333 0 0 -1.3333 0 100)" d="m119.64 39.995 7.56-2.4948-7.56-2.4948" clip-path="url(#s)" fill="none" stroke="#000" stroke-miterlimit="2" stroke-width=".675"/><path transform="matrix(1.3333 0 0 -1.3333 0 100)" d="m40.8 37.5c0-5.9647-4.8353-10.8-10.8-10.8s-10.8 4.8353-10.8 10.8 4.8353 10.8 10.8 10.8 10.8-4.8353 10.8-10.8z" clip-path="url(#r)" fill="#fff" stroke="#000" stroke-miterlimit="2" stroke-width=".675"/><path transform="matrix(1.3333 0 0 -1.3333 0 100)" d="m32.16 37.5c0-1.1929-0.9671-2.16-2.16-2.16s-2.16 0.9671-2.16 2.16 0.9671 2.16 2.16 2.16 2.16-0.9671 2.16-2.16z" clip-path="url(#q)"/><path transform="matrix(1.3333 0 0 -1.3333 0 100)" d="m27.261 21.461v-2.0817c0-0.2625 0.1052-0.3322 0.1052-0.3322 0.1217-0.0792 0.585-0.0792 0.585-0.0792h0.2105v-0.2707c-0.3061 0.026-1.2944 0.026-1.2944 0.026-0.98 0-1.2862-0.026-1.2862-0.026v0.2707h0.2105c0.5686 0 0.6561 0.1489 0.6561 0.1489 0.0342 0.0616 0.0342 0.2625 0.0342 0.2625v4.6105c0 0.2624-0.1053 0.3321-0.1053 0.3321-0.1217 0.0793-0.585 0.0793-0.585 0.0793h-0.2105v0.2706h3.0878c1.0155 0 1.6279-0.6301 1.6279-0.6301 0.4374-0.4374 0.4374-0.9965 0.4374-0.9965 0-0.6916-0.6739-1.1727-0.6739-1.1727-0.5782-0.4115-1.3217-0.4115-1.3217-0.4115zm-0.026 0.2283h1.2069c1.33 0 1.3902 1.155 1.3902 1.155v0.2009c0 0.7081-0.3144 1.0143-0.3144 1.0143-0.3499 0.3417-1.0758 0.3417-1.0758 0.3417h-0.7791c-0.3403 0-0.4018-0.1053-0.4018-0.1053v-0.0177c-0.026-0.052-0.026-0.2269-0.026-0.2269z" clip-path="url(#p)"/><path transform="matrix(1.3333 0 0 -1.3333 0 100)" d="m34.045 19.345c0-0.8937-0.2268-1.3836-0.2268-1.3836-0.3607-0.686-1.0649-0.7109-1.0649-0.7109-0.5578 0-0.8946 0.4411-0.8946 0.4411-0.067 0.0794-0.1158 0.178-0.1158 0.178-0.2756 0.508-0.2756 1.4754-0.2756 1.4754 0 0.9003 0.2258 1.3902 0.2258 1.3902 0.3062 0.686 0.9922 0.7281 0.9922 0.7281h0.0737c0.5454 0 0.8879-0.4343 0.8879-0.4343v-0.0058c0.0861-0.111 0.1531-0.2449 0.1531-0.2449 0.245-0.5205 0.245-1.4333 0.245-1.4333zm-1.2917-1.9596c0.3856 0 0.5932 0.3732 0.5932 0.3732 0.0861 0.1655 0.1225 0.3923 0.1225 0.3923 0.0679 0.3923 0.0679 1.2677 0.0679 1.2677 0 0.8506-0.0612 1.1941-0.0612 1.1941-0.1101 0.5818-0.5636 0.6976-0.5636 0.6976-0.0794 0.0191-0.1588 0.0191-0.1588 0.0191-0.4287 0-0.6248-0.4287-0.6248-0.4287-0.068-0.1473-0.1043-0.3559-0.1043-0.3559-0.0488-0.3301-0.0488-1.1262-0.0488-1.1262 0-0.9252 0.067-1.2926 0.067-1.2926 0.11-0.5875 0.5386-0.7157 0.5386-0.7157 0.0862-0.0249 0.1723-0.0249 0.1723-0.0249z" clip-path="url(#o)"/><path transform="matrix(1.3333 0 0 -1.3333 0 100)" d="m79.14 48.3v-21.6h9.72v21.6z" clip-path="url(#n)" fill="#fff" stroke="#000" stroke-miterlimit="2" stroke-width=".675"/><path transform="matrix(1.3333 0 0 -1.3333 0 100)" d="m80.893 51.212c0.0054 0.0219 0.0177 0.0725 0.0177 0.0725 0.0124 0.0519 0.0342 0.0861 0.0342 0.0861 0.0219 0.0342 0.0643 0.0342 0.0643 0.0342 0.3157 0 0.5549 0.0109 0.5549 0.0109 0.2392 0.0109 0.3636 0.0314 0.3636 0.0314 0.2091 0.0438 0.2597 0.2529 0.2597 0.2529l1.2001 4.8046c0.0342 0.1367 0.0342 0.2009 0.0342 0.2009 0 0.0601-0.2638 0.0601-0.2638 0.0601h-0.436c-0.5509 0-0.8625-0.2282-0.8625-0.2282-0.3117-0.2283-0.4019-0.4361-0.4019-0.4361-0.0902-0.2077-0.2146-0.611-0.2146-0.611-0.123-0.4032-0.2173-0.4209-0.2173-0.4209h-0.1326c-0.0889 0-0.0889 0.112-0.0889 0.112l0.6069 1.8111c0.0164 0.0807 0.0848 0.0807 0.0848 0.0807h4.7581c0.0902 0 0.0902-0.1148 0.0902-0.1148l-0.3076-1.8111c0-0.026-0.03-0.052-0.03-0.052-0.0301-0.0259-0.0561-0.0259-0.0561-0.0259h-0.1312c-0.0902 0-0.0902 0.112-0.0902 0.112 0.1148 0.6192 0.1148 0.9473 0.1148 0.9473 0 0.3854-0.2228 0.5112-0.2228 0.5112-0.2214 0.1257-0.6438 0.1257-0.6438 0.1257h-0.4278c-0.2297 0-0.2966-0.041-0.2966-0.041-0.0657-0.0396-0.1217-0.2583-0.1217-0.2583l-1.2001-4.8005c-0.0164-0.0683-0.0164-0.0861-0.0164-0.0861 0-0.0943 0.0683-0.1148 0.0683-0.1148 0.1367-0.0342 0.3841-0.0478 0.3841-0.0478 0.2474-0.0123 0.5509-0.0123 0.5509-0.0123 0.0902 0 0.0902-0.1149 0.0902-0.1149-0.0301-0.1161-0.0492-0.1544-0.0492-0.1544-0.0192-0.0383-0.1012-0.0383-0.1012-0.0383h-2.8786c-0.0861 0-0.0861 0.1148-0.0861 0.1148z" clip-path="url(#m)"/><path transform="matrix(1.3333 0 0 -1.3333 0 100)" d="m88.352 51.745c0-0.8937-0.2268-1.3836-0.2268-1.3836-0.3607-0.686-1.0649-0.7109-1.0649-0.7109-0.5578 0-0.8946 0.4411-0.8946 0.4411-0.067 0.0794-0.1158 0.178-0.1158 0.178-0.2756 0.508-0.2756 1.4754-0.2756 1.4754 0 0.9003 0.2258 1.3902 0.2258 1.3902 0.3062 0.686 0.9923 0.7281 0.9923 0.7281h0.0736c0.5454 0 0.888-0.4343 0.888-0.4343v-0.0058c0.0861-0.111 0.1531-0.2449 0.1531-0.2449 0.2449-0.5205 0.2449-1.4333 0.2449-1.4333zm-1.2917-1.9596c0.3856 0 0.5932 0.3732 0.5932 0.3732 0.0861 0.1655 0.1225 0.3923 0.1225 0.3923 0.0679 0.3923 0.0679 1.2677 0.0679 1.2677 0 0.8506-0.0612 1.1941-0.0612 1.1941-0.11 0.5818-0.5636 0.6976-0.5636 0.6976-0.0794 0.0191-0.1588 0.0191-0.1588 0.0191-0.4287 0-0.6248-0.4287-0.6248-0.4287-0.0679-0.1473-0.1043-0.3559-0.1043-0.3559-0.0488-0.3301-0.0488-1.1262-0.0488-1.1262 0-0.9252 0.067-1.2926 0.067-1.2926 0.11-0.5875 0.5387-0.7157 0.5387-0.7157 0.0861-0.0249 0.1722-0.0249 0.1722-0.0249z" clip-path="url(#k)"/><path transform="matrix(1.3333 0 0 -1.3333 0 100)" d="m148.8 37.5c0-5.9647-4.8353-10.8-10.8-10.8s-10.8 4.8353-10.8 10.8 4.8353 10.8 10.8 10.8 10.8-4.8353 10.8-10.8z" clip-path="url(#j)" fill="#fff" stroke="#000" stroke-miterlimit="2" stroke-width=".675"/><path transform="matrix(1.3333 0 0 -1.3333 0 100)" d="m135.26 21.461v-2.0817c0-0.2625 0.1052-0.3322 0.1052-0.3322 0.1217-0.0792 0.585-0.0792 0.585-0.0792h0.2105v-0.2707c-0.3061 0.026-1.2944 0.026-1.2944 0.026-0.98 0-1.2862-0.026-1.2862-0.026v0.2707h0.2105c0.5686 0 0.6561 0.1489 0.6561 0.1489 0.0341 0.0616 0.0341 0.2625 0.0341 0.2625v4.6105c0 0.2624-0.1052 0.3321-0.1052 0.3321-0.1216 0.0793-0.585 0.0793-0.585 0.0793h-0.2105v0.2706h3.0877c1.0156 0 1.628-0.6301 1.628-0.6301 0.4374-0.4374 0.4374-0.9965 0.4374-0.9965 0-0.6916-0.6739-1.1727-0.6739-1.1727-0.5782-0.4115-1.3217-0.4115-1.3217-0.4115zm-0.026 0.2283h1.2069c1.33 0 1.3902 1.155 1.3902 1.155v0.2009c0 0.7081-0.3144 1.0143-0.3144 1.0143-0.3499 0.3417-1.0758 0.3417-1.0758 0.3417h-0.7791c-0.3403 0-0.4018-0.1053-0.4018-0.1053v-0.0177c-0.026-0.052-0.026-0.2269-0.026-0.2269z" clip-path="url(#i)"/><path transform="matrix(1.3333 0 0 -1.3333 0 100)" d="m141.03 21.304v-3.4349c0-0.1837 0.0727-0.2335 0.0727-0.2335 0.1043-0.0612 0.4966-0.0612 0.4966-0.0612h0.1962v-0.1895c-0.2143 0.0182-0.9922 0.0182-0.9922 0.0182-0.7779 0-0.9922-0.0182-0.9922-0.0182v0.1895h0.1961c0.4717 0 0.5387 0.111 0.5387 0.111l6e-3 0.0057c0.0249 0.0488 0.0249 0.178 0.0249 0.178v3.1718c-0.3186-0.1598-0.8018-0.1598-0.8018-0.1598v0.1904c0.7348 0 1.1137 0.3913 1.1137 0.3913 0.1167 0 0.1349-0.0421 0.1349-0.0421v-0.0067c7e-3 -0.0181 7e-3 -0.11 7e-3 -0.11z" clip-path="url(#h)"/></g></svg>
